<svg aria-hidden="true" style="position: absolute; width: 0; height: 0; overflow: hidden;" version="1.1" xmlns="http://www.w3.org/2000/svg" xmlns:xlink="http://www.w3.org/1999/xlink">
<defs>
<symbol id="icon-favorite" viewBox="0 0 37 32">
<path fill="#878686" style="fill: var(--color1, #878686); stroke: var(--color1, #878686)" stroke="#878686" stroke-linejoin="miter" stroke-linecap="butt" stroke-miterlimit="4" stroke-width="0.6857" d="M18.286 29.714c-0.456 0-0.895-0.159-1.237-0.448-1.293-1.089-2.539-2.112-3.639-3.015l-0.006-0.005c-3.224-2.647-6.008-4.933-7.945-7.184-2.165-2.517-3.174-4.904-3.174-7.511 0-2.533 0.902-4.87 2.539-6.581 1.656-1.731 3.929-2.684 6.401-2.684 1.847 0 3.539 0.563 5.028 1.672 0.751 0.56 1.433 1.245 2.033 2.045 0.6-0.799 1.281-1.485 2.033-2.045 1.489-1.11 3.181-1.672 5.028-1.672 2.471 0 4.744 0.953 6.401 2.684 1.637 1.711 2.538 4.048 2.538 6.581 0 2.607-1.008 4.994-3.174 7.511-1.937 2.252-4.721 4.538-7.944 7.184-1.102 0.904-2.35 1.929-3.645 3.021-0.342 0.288-0.782 0.447-1.237 0.447zM11.225 4.092c-1.942 0-3.725 0.747-5.023 2.102-1.317 1.376-2.042 3.279-2.042 5.357 0 2.193 0.846 4.154 2.743 6.359 1.833 2.131 4.56 4.37 7.717 6.962l0.006 0.005c1.104 0.906 2.355 1.934 3.657 3.031 1.31-1.099 2.563-2.128 3.669-3.036 3.157-2.592 5.883-4.831 7.717-6.962 1.896-2.205 2.742-4.166 2.742-6.359 0-2.078-0.725-3.981-2.042-5.357-1.297-1.356-3.081-2.102-5.023-2.102-1.422 0-2.728 0.436-3.881 1.295-1.028 0.766-1.743 1.734-2.163 2.411-0.216 0.348-0.596 0.556-1.016 0.556s-0.801-0.208-1.016-0.556c-0.419-0.677-1.135-1.646-2.163-2.411-1.153-0.859-2.459-1.295-3.881-1.295z"></path>
</symbol>
</defs>
</svg>
