<svg version="1.0" xmlns="http://www.w3.org/2000/svg"  width="1200" height="720" viewBox="0 0 900 540">
<path fill="gray" d="M549.7 10.9c-8.7 1.9-19.2 6.2-24.6 10-2.5 1.8-3.1 1.8-8.6.5-3.5-.8-11.4-1.4-19.1-1.4-29.7 0-60.6 9-79.9 23.2-27.7 20.4-55 64.1-63.2 101.3-.8 3.8-1.6 11.3-1.7 16.5-.1 8.3.3 10.2 2.4 14.5 2.8 5.7 7.8 9.5 12.4 9.5h3.1l-.3 16.3c-.6 24.6 2 35.8 10.5 45.7 3.7 4.3 3.8 4.5 3.8 12.9 0 15.3 6.2 22.9 22.4 27.7.8.3 1.2.6 1 .8-.2.1-16.9-.4-37.2-1.2-38.7-1.5-39.7-1.4-39.7 2.8 0 1 4.7 17.5 10.4 36.6 5.7 19.2 12.5 42.1 15.1 50.9 2.6 8.8 6.3 21.3 8.2 27.8 1.9 6.4 3.3 12.3 3 13-.2.7-7.2 2.6-15.8 4.5l-15.4 3.2-9-3.5c-34.3-13.6-69.2-18.2-95.5-12.6-24 5.1-56.7 17.9-71.4 28.1-12.5 8.5-14.2 17.4-4.1 21.6 4.3 1.8 4.1 2.1-3.5 5.4-7.8 3.5-15 7.7-18.2 10.8-4 3.7-3.9 9.1.2 12.5 3.5 3 12.5 6.1 23.4 8.2 8.7 1.7 9.7 2.1 7.2 3.1-.9.4-2.4 2-3.2 3.6-4.9 9.4 11.1 16.8 47.1 22 13.6 1.9 45 1.6 55.8-.5 31.4-6.3 57.1-21.6 77.3-45.9l3.9-4.7 18.4-2.6c12.4-1.7 18.8-2.2 19.5-1.5 2 2 5.3.8 20.7-7.6 8.7-4.7 16.3-8.3 16.8-7.9.6.3 5.2 6.5 10.3 13.7 5.1 7.3 9.9 13.9 10.8 14.8 4.5 4.5 7.4 6 11.6 6 5.3 0 8.9-2.8 10.8-8.5 1-2.9 2-4.1 3.8-4.3 3.8-.6 24.7-15.2 32.4-22.7 4.9-4.8 7.7-8.5 8.9-11.8 1.2-3.2 2.5-4.9 3.9-5.2 1.2-.3 17.6-3.2 36.6-6.6 38.4-6.9 38.9-6.9 47.1-1 12.1 8.8 27.7 4.5 34.8-9.6 1.3-2.6 3-4.5 4.4-4.8 2.3-.5 69.7-12.5 93.6-16.6 7.7-1.3 14.2-3 15.4-3.9 1.5-1.3 2.1-3.5 2.8-10.1 1.4-15.4 1.2-18.7-1.5-20.4-2.6-1.7 4.5-2.9-89.5 14-20 3.6-37.3 6.5-38.5 6.5-3.4-.1-5.5-2.3-4.9-5.2.6-3.2.2-3.5-24.7-17.4l-19.5-10.9 16-.7c38.7-1.8 63.3-7 82.4-17.4 7.7-4.3 16.7-11 20.8-15.7 2.4-2.7 4.1-3.6 7.9-4.1 6.8-1 12.4-3.7 16.6-7.8 5.5-5.6 7.3-10.2 7.4-19.3l.1-8 6-6.1c4.8-4.8 6.4-7.3 8.1-12.5 2.2-6.4 4.5-17.3 5.7-26l.6-4.7 3.8.5c5.5.8 13.6-2.1 16.2-5.8 6.6-9.3 4.1-39.6-6.2-74.2-9.1-30.4-24.6-59.7-42.7-80.2-23.8-27.1-60.8-47.3-102.7-56-17.9-3.8-47.3-4.5-60.8-1.6zM482.4 128c7.3 4.6 15.1 12.4 23 23 12.3 16.3 19.4 28.6 33 57 2.5 5.3 4.1 7 7.3 7.9 11.3 3.1 21.7-10.4 26.5-34.7l1.3-6.3 6.5 8.8c3.5 4.8 10.3 12.7 15 17.4l8.6 8.6-3.2 1.2c-4.2 1.5-8.4 5.5-8.4 8 0 1.1 1.1 3.2 2.4 4.8l2.4 2.8-4.1 4c-5.8 5.7-11 14.2-13.1 21.3-1.1 3.4-2.2 6.2-2.5 6.2-.3 0-10.3-.9-22.1-2s-22-2-22.6-2c-.6 0-1.4-2.8-1.7-6.4-.7-7.6-4.3-16.9-9.1-23.6l-3.4-4.8 2.9-2.1c8.2-6.1-1-14.6-23.1-21.6-20-6.3-35.1-7.1-38.2-2.2-1.4 2.3-.8 6.7 1.3 8.8 1.1 1.1 1.9 2.1 1.7 2.2-.2.1-3.4 1.8-7.3 3.7-8 3.9-17.9 13.1-21.6 20-1.3 2.5-3.3 7.2-4.5 10.5-1.4 4.2-2.6 6-3.7 5.9-1 0-4.2-.1-7.2-.2l-5.5-.2v-12.9l5.1.2c4.7.2 5.3-.1 7.9-3.2 3.4-4 7.7-13.6 16.6-37.1 13.3-35.1 29.1-66 33.7-66 .7 0 3.5 1.4 6.1 3zm181 81.4c7 13.1 13.9 25.7 15.5 28 4.6 6.7 10.5 11.5 15.1 12.2 3.8.6 4 .8 4 4.3 0 2-.3 6-.7 9l-.6 5.3-6.9-.4c-7.7-.4-8.8-1.2-8.8-6.9 0-11.6-10.4-28.6-22.7-37l-4.2-2.9 2.5-2.5c2.9-2.9 3.2-7.5.6-9.8-1-.9-4.1-2.2-6.8-2.8l-5-1.2.7-4.6c.4-2.5.8-6.9.8-9.8.1-2.8.4-5.9.7-6.8.6-1.4.8-1.4 1.9.2.7 1.1 7 12.6 13.9 25.7zM489 212.1c14.4 3.3 26.8 14.9 31.1 29.1 7.6 24.9-8.5 50.6-34.5 55.1-18.5 3.1-37.4-7.1-45.9-25-3-6.3-3.2-7.6-3.2-17.3 0-9.7.2-11 3.2-17.2 9.1-19.2 29.2-29.3 49.3-24.7zm150.5 13.3c26.9 7.2 40.5 35.9 28.5 60.3-13.3 26.9-50 32.5-70 10.6-12.4-13.6-15.2-31.9-7.2-48.1 8.8-18 29.9-27.9 48.7-22.8zm-214.7 28.2c1.7.5 2.2 1.4 2.2 3.8 0 4.6 2.6 13.8 5.7 20.3 1.5 3.3 5.4 8.4 9.3 12.4 7.9 8.1 17.6 13.2 28.8 15.1 24.8 4.2 51-12 57.8-35.8 1.3-4.3 2.4-6.4 3.4-6.4.8 0 11.2.9 23 2s21.6 2 21.6 2c.1 0 .7 3.5 1.3 7.7 4.8 30.2 34.6 50.2 63.6 42.8 9.4-2.4 16.2-6.2 23.5-13.1 7.1-6.7 13.3-16.7 14.8-24l.8-3.9 7 .4c3.8.2 7.1.5 7.3.7.8.7-5 16.9-7.9 21.9-8.9 15.5-25.4 25.9-51.5 32.5-17 4.3-29.2 5.5-56.5 5.4-49.3-.1-91.1-7.8-121.5-22.4-15.6-7.5-29-18.1-35-27.5-4.1-6.3-8.2-17.8-9-24.7-.3-2.9-.8-6.3-1.1-7.6-.4-2.1-.1-2.2 4.8-2.2 2.9 0 6.3.3 7.6.6zM737 379.9v4l-5.2 1c-16.2 3.1-23.4 4.2-25.7 3.6-1.8-.4-2.2-.3-1.2.4 1 .6.2 1-2.5 1.4-2.2.2-7.9 1.2-12.8 2.1-6.4 1.2-9.1 1.4-9.6.6-.5-.8-1-.7-1.8.3-.7.8-4.7 2-9 2.7-4.2.6-13.2 2.3-19.8 3.6-14.8 2.9-15.4 2.9-15.4.4 0-1.1-.5-2-1.1-2-.5 0-.7-.5-.4-1 .3-.6 0-1-.7-1.1-2.2-.1 2.8-1.8 6.9-2.3 4.9-.6 21.3-3.5 23.7-4.3 1.2-.3 1.6-.1 1.2.6-.4.6-.2 1.1.3 1.1.6 0 1.1-.4 1.1-.9 0-.8 5.4-2.1 15-3.6 1.9-.3 4.9-1 6.5-1.5 7-2 16.8-3.1 17.5-1.9.6.8 1 .7 1.6-.4.5-.9 3-1.8 5.9-2.2 2.8-.3 8.8-1.5 13.5-2.5 12.3-2.6 12-2.7 12 1.9zm-199.7 12.6c3.1 2.2 5.7 4.3 5.7 4.6 0 .7-21.2 4.9-24.6 4.9-1.3 0 .1-1.9 5.1-7 3.8-3.9 7.2-6.9 7.5-6.8.3.2 3.1 2.1 6.3 4.3zm83.6 11.1c2.4 3.1 2.7 8.3.7 12.2-2.9 5.7-11.7 7.6-17 3.7-1.7-1.3-1.4-1.9 5.5-9.9 4.1-4.7 7.7-8.6 8.1-8.6.4 0 1.6 1.2 2.7 2.6zm-62.9 5.3c0 .5.9 1.1 2.1 1.4 1.3.4 1.8 1 1.3 1.8-.4.7-.3 1 .3.6s1.9.1 2.9.9c1 .9 1.3 1.3.6.9-.7-.4-1.8-.2-2.5.3s-4.3 1.5-8.2 2.1c-3.8.6-10.8 1.8-15.5 2.7-4.7.8-10.7 1.8-13.5 2-2.7.3-6.2.9-7.7 1.4-2.8.9-2.8.8-2.8-3.3v-4.2l17.3-2.9c9.4-1.6 18.5-3 20.1-3.2 1.6-.2 3.2-.6 3.4-.9.8-.8 2.2-.6 2.2.4zm-184.4 30.2c1.2 4.1 2.8 9.5 3.7 12.1 1.8 5.6 1 6.8-4.5 6.8-2.9 0-3.6-.3-3.2-1.5.4-.8.1-2.2-.6-3-.7-.8-1-3-.8-4.9.2-1.9.1-3.3-.3-3.1-.3.3-.9-1.7-1.2-4.3-.4-2.6-.9-5.7-1.3-6.9-.5-1.7-.1-2.2 1.8-2.6 3.9-.7 4.2-.3 6.4 7.4zm-22.9-2.5c-.3.3.1 2.7.8 5.2 2.1 7.4 2.7 14.4 1.2 13.6-.6-.4-.4.2.6 1.3 2.1 2.4 2.2 4.3.2 4.3-.8 0-1.2-.6-.9-1.3.3-.8-.2-1.4-1-1.4s-1.2.6-.9 1.4c.3.7-.2 1.3-1.1 1.3-1.6 0-1.8-.5-3.6-10.5-.6-3.3-1.3-7-1.6-8.2-.3-1.8-.1-2.1 1.3-1.7 1.7.5 1.7.5.1-.6-2.4-1.5-2.2-2.8.5-3.3 3.6-.7 5.1-.7 4.4-.1z"/>
<path fill="white" d="M473.5 229.9c-9.9 4.6-14.1 15.8-9.6 25.6 4.8 10.3 14.7 14.2 24.7 9.6 7.4-3.4 10.9-10.3 10.2-20.1-.9-12.9-13.7-20.5-25.3-15.1zM620.5 242.6c-14.4 7.5-14.5 29-.1 35.5 12.8 5.8 26.6-3.8 26.6-18.7 0-5-4.4-12.6-9.2-15.7-4.9-3.2-12.4-3.7-17.3-1.1zM533 305.5c-.6.8-1 2.2-.8 3.2.4 2 14.3 10.3 17.3 10.3 3.3 0 16.7-5.4 17.8-7.1 1.5-2.3.1-4.9-2.5-4.9-1.3 0-5.2 1-8.6 2.2l-6.4 2.2-6.8-3.7c-7.6-4.1-8.3-4.3-10-2.2z"/></svg>