<svg width="783" height="293" xmlns="http://www.w3.org/2000/svg"><defs><filter id="a"><feGaussianBlur in="SourceGraphic"/></filter></defs><path fill="none" d="M-1-1h785v295H-1z"/><g><g stroke="#ff6b08" fill="#ff6b08"><path d="M128.5138 5.7835C103.2018 9.67 70.1862 23.1432 55.6043 35.58c-8.8041 7.5139-9.0793 7.773-1.3756 3.1092 15.6824-9.3276 18.7088-8.5503 6.6031 1.8137-6.6031 5.7002-12.9311 10.364-14.3068 10.623-1.1005 0-7.7036 8.5503-14.857 18.6552-7.1534 10.364-13.4813 19.4325-14.3067 20.2098-.8254.7773-1.6508 2.3319-1.6508 3.8865 0 7.5139-7.9788 26.9463-10.455 25.3917-1.6507-1.0364-2.201.7773-1.1005 4.923 1.1005 3.3682.5503 12.6958-.5502 20.4688-6.0529 33.683 13.7565 80.58 46.772 111.1537 18.1586 16.8415 48.423 32.3875 58.3276 29.7965 4.6772-1.2955 5.2275-1.0364 1.926 1.0364-4.6773 3.1092-7.1535 2.85 31.6399 3.8865 44.2959 1.2955 82.539-11.6595 110.6022-37.8286 7.9788-7.5139 14.0316-13.9913 13.4814-14.5095-.8254-.5182 3.0264-4.923 8.2539-9.5867 6.603-5.9593 8.8041-10.105 7.4285-13.2141-.8254-2.591-.5503-3.8865.8254-3.1092 1.3756 1.0364 2.7513-1.0364 3.0264-3.8865 0-3.1092 2.201-12.1777 4.6772-19.9507 5.5026-17.6187 5.7777-50.0062.5503-59.0747-2.201-3.8865-5.5026-10.8822-7.1534-15.2869-1.926-4.6638-4.402-7.773-5.7777-6.9957-1.3757.7773-2.4762-.7773-2.4762-3.1092 0-2.591-.8254-3.6273-1.6508-2.85-1.6508 1.5545-7.9788-7.2548-14.5819-20.728-3.3015-6.4775-23.386-24.6145-30.2643-26.9464-2.4761-1.0364 3.8519 6.2184 14.0317 16.0642 17.3332 16.8415 23.9363 26.6873 20.3596 30.0556-.8254 1.0364-1.6508 0-1.6508-2.0728 0-3.8865-9.9047-11.1413-15.4073-11.4004-1.6508 0-7.9788-4.4047-13.7565-9.8458-15.9575-14.5096-20.0845-11.6595-5.2275 3.8865 6.8783 7.2548 14.0317 15.805 15.4073 18.6551 2.4762 4.6638 1.926 4.6638-2.7513-.7773-3.8518-3.8864-7.7036-5.441-11.0052-4.6637-3.3015.7773-7.4285-.7773-10.1798-3.6274-2.7513-2.8501-9.0793-7.514-14.0316-10.364-8.529-4.9229-12.3809-12.6959-6.328-12.6959 1.6508 0 2.7513-1.2955 2.7513-2.85 0-1.2956-1.3757-1.8138-3.3016-.7774-1.9259 1.2955-2.201.7773-.5502-1.8137 1.3756-2.0728 1.9259-5.441 1.6508-7.773-.5503-2.3319 1.1005-4.1456 3.5766-4.1456 2.201 0 4.127 1.0364 4.127 2.332s1.3756 1.5545 3.0264.5181c1.926-1.0364 0-4.1456-5.5026-8.032-9.9047-7.2549-11.2803-12.4368-2.7513-10.364 5.2275 1.2955 5.2275 1.0364 1.6508-4.1456-4.127-5.9593-5.2275-6.7366-25.8622-15.546-7.9788-3.3683-13.7565-6.9957-12.656-7.773.8254-1.0364.2751-1.8137-1.3756-1.8137-1.926 0-3.3016 1.0364-3.3016 2.591 0 1.2955-5.7777 2.591-12.9311 2.3319l-13.2062-.2591 10.73-2.3319c11.2804-2.591 16.783-5.182 9.6296-4.6638-2.201.2591-13.7565 1.8137-25.8622 3.6274zm3.3015 5.441c-.8254.7774-3.3015 1.0365-5.2274.2592-2.201-.7773-1.3757-1.5546 1.6507-1.5546 3.0265-.2591 4.6773.5182 3.5767 1.2955zM233.0632 79.627c2.7513 2.85 4.402 5.182 3.5766 5.182-.8253 0-3.5766-2.332-6.328-5.182-2.7512-2.8501-4.402-5.182-3.5766-5.182.8254 0 3.5767 2.3319 6.328 5.182zm45.3964 142.5048c-1.6508 2.85-3.5767 5.182-4.402 5.182-.5503 0 0-2.332 1.6507-5.182s3.5767-5.182 4.402-5.182c.5503 0 0 2.3319-1.6507 5.182zM233.3284 336.147c0 .5182 1.926 1.8137 4.4021 2.591 2.201.7773 3.3016.5182 2.4762-1.0364-1.6508-2.591-6.8783-3.6274-6.8783-1.5546zm22.0104 15.805c3.5767 3.6274 7.1534 6.4775 7.7037 6.4775.8253 0-1.3757-2.85-4.9524-6.4775s-7.1534-6.4775-7.7036-6.4775c-.8254 0 1.3756 2.8501 4.9523 6.4775zm61.354 77.73c0 20.987.8254 25.9099 2.201 18.9142 1.3757-5.441 1.3757-18.137 0-28.501l-2.4761-18.9142.2751 28.501z"/></g><g stroke="null" filter="url(#a)"><g stroke="none"><path d="M145.6816 31.7637c-5.3948 1.384-13.7322 4.4287-18.3914 6.3663-4.6591 2.2144-18.6365 4.4288-30.8974 4.9824-18.6365.8304-24.0313 2.2144-33.3496 8.5807-9.073 6.0896-19.127 17.715-19.127 22.1438 0 .8304 5.1496.5536 11.7705 0l11.5252-1.384-8.8278 7.1968c-13.2418 10.5183-19.8627 27.6797-19.8627 52.3147.2452 21.3134 6.8661 50.1004 16.1844 69.753l5.1496 11.0719 1.4713-29.0637c1.9617-39.8589 2.9426-41.5197 14.2226-27.1262 9.8087 12.179 13.487 12.4559 15.694.2768 3.6782-20.7598 24.0313-39.582 42.6678-39.582 8.5826 0 11.7705 1.6607 18.8818 9.411 7.6017 8.8576 21.0887 35.9837 21.0887 42.9037 0 12.7327 29.6713-20.2062 34.5757-38.198 2.9426-11.072 3.1878-11.3488 7.847-6.6432 7.3565 7.4735 15.6939 31.0013 20.5982 57.5739 2.4522 13.0095 4.9044 23.5278 5.8853 23.5278 2.9426 0 11.5252-26.2958 14.4678-44.2876 4.9044-31.0014-1.4713-60.342-18.8817-86.0841-21.0888-31.555-63.5114-51.4843-92.6923-43.734zM320.767 80.7569l-13.2418 7.7503.7357 34.5997c.7356 35.1533 4.6591 94.1112 6.866 102.9687 1.2262 4.4287 3.188 4.7055 15.2036 3.3216 22.56-3.0448 23.2957-3.3216 21.5791-13.5631-3.433-17.9919-6.866-51.2076-5.8852-56.19.7357-3.3215 3.433.2769 8.8279 12.1792l7.847 17.4382h24.0313l8.5826-20.2062 8.8278-19.9294-.9809 12.4559c-.7356 6.9199-1.7165 27.403-2.4521 45.3948l-1.2261 32.9389 13.9774-1.6608c7.847-1.1072 17.9009-3.3216 22.56-4.9824l8.3374-3.3215-1.7165-18.2687c-.7357-9.9647-1.4713-42.9036-1.4713-73.0745v-54.806l-9.073-4.152c-4.9044-2.4911-12.5062-4.9823-16.6749-5.8127-6.6208-1.1072-8.3374 0-14.2226 9.4111-3.6783 6.0896-10.5444 18.8223-14.9583 28.5102l-8.3374 17.4382-4.9043-10.795c-2.6974-5.8128-10.054-18.5455-16.1844-28.2334-13.2418-20.2062-16.6748-21.0366-36.047-9.4111zM352.4 97.3647c5.3949 8.8575 13.487 23.5278 18.1462 32.939l8.3374 16.8846 12.7513-27.9566c18.3913-40.4124 17.901-39.8588 30.6522-35.1533l10.2992 4.152.7356 67.5386c.2452 37.3677-.2452 68.6458-1.226 69.753-1.2262 1.1072-7.3566 3.0448-13.9775 3.8752l-11.7704 2.2143 1.226-8.027c.7357-4.4289 2.207-29.8942 2.9427-56.4668 1.7165-55.9131 1.7165-55.9131-17.6557-11.9023-10.5444 24.3582-11.5252 25.7422-18.6365 25.7422-7.3566 0-8.5827-1.6608-18.1462-22.9742-17.1652-37.9213-17.6556-38.198-17.6556-7.4736 0 14.3935 1.4713 35.707 3.1878 47.0556 1.9617 11.3487 3.1878 21.0367 2.9426 21.0367 0 .2768-5.3948 1.1071-11.5252 1.6607l-11.5252 1.384-1.4714-15.5006c-1.7165-17.1615-6.3756-111.8263-5.64-112.6567 3.6783-3.3215 21.0888-11.9023 24.2766-12.179 2.4522 0 8.3374 6.643 13.7322 16.0542zM653.2822 80.48c-3.1878 3.3216-3.9235 7.7504-2.9426 16.8847.7356 6.6432 2.207 13.2863 3.6783 14.947 1.4713 1.6609 8.5826 1.9377 18.3913.8305l15.694-1.9376 2.9425-14.947c1.7166-8.0272 2.4522-16.0543 1.4713-17.7151-.7356-1.384-9.073-2.768-18.3913-2.768-12.5061 0-17.9009 1.1072-20.8435 4.7056zm32.3687 4.7056c.2453.2768-.2452 4.152-1.4713 8.8575-1.4713 6.92-3.1878 8.304-12.7513 9.688-12.7513 2.2143-15.2035.2768-13.9774-10.2416.4904-6.3663 2.207-8.3039 8.0922-9.6879 5.8852-1.384 17.6557-.5536 20.1078 1.384zM476.9707 115.6334c-6.8661 2.2143-14.9583 7.1967-19.3722 12.179-6.6209 7.4736-7.3566 9.688-5.3948 16.0543 2.6974 8.5807 16.4296 17.715 26.2383 17.715 5.64 0 6.866-1.384 6.866-6.3663 0-3.5984 1.4714-8.8575 3.4331-11.9023 3.433-4.9823 3.6783-4.9823 6.1305 2.4912 5.3948 16.0542 4.1687 18.5454-10.7896 18.5454-25.0122 0-38.0088 10.7951-38.0088 31.8317 0 20.2063 12.9966 31.8318 35.3114 31.8318 5.8852 0 11.28 1.1072 11.7704 2.768.4905 1.384 7.847 3.0447 16.6748 3.3215l15.9392.8304 4.414-23.5278c2.452-13.0095 4.659-34.8765 4.9043-48.4396.4904-29.6173-2.6974-37.6444-18.6366-45.9484-12.0156-6.0895-22.56-6.3663-39.48-1.384zm36.7826 8.5807c9.3183 4.4287 15.694 17.1614 15.694 31.8317 0 12.179-7.3566 65.0474-9.8087 69.1994-1.2261 2.4912-4.6592 3.0448-10.5444 1.6608-7.3565-1.6608-8.3374-2.768-7.1113-7.7504.9809-4.9823.4904-5.5359-3.433-3.5983-6.8662 3.3216-22.3149 4.9823-29.181 3.0448-10.2991-3.0448-15.9391-11.3487-15.9391-23.8046 0-16.0543 9.5635-22.1438 33.84-22.1438h17.6557v-11.072c0-13.563-5.8852-30.4477-10.2992-30.4477-4.659 0-14.2226 8.0271-14.2226 11.9023-.2452 8.5807-4.1687 11.3487-11.7704 7.7503-14.713-6.9199-11.0348-18.8222 8.3374-26.5725 12.506-4.9824 25.993-5.2592 36.7826 0z"/><path d="M492.9098 180.6808c-3.1878.8304-8.0922 4.9823-10.7896 9.1343-4.659 6.92-4.659 7.7503-.7356 14.3935 3.9235 7.1967 12.0157 9.1343 18.1461 4.9823 1.7165-1.384 3.6783-8.8575 4.6591-16.6078 1.4713-15.5007.981-15.7775-11.28-11.9023zm3.6783 13.0095c-.7357 2.4911-1.4713 5.536-1.4713 6.92 0 3.3215-6.6209 3.0447-8.5826-.2769-2.207-3.8752 3.1878-11.0719 7.847-11.0719 2.4521 0 3.1878 1.6608 2.2069 4.4288zM572.3604 120.8925c-4.1687 1.6608-9.8087 5.2592-12.7514 7.4735-15.2035 12.456-22.3148 47.3324-14.4678 70.5834 4.414 12.7327 16.1844 26.2958 23.0505 26.2958 1.9617 0-2.207 3.3216-9.5635 7.4735-11.28 6.6432-13.2418 8.8576-12.5061 14.6703 1.4713 11.072 7.6017 19.3758 18.3913 25.1886 25.0122 12.7327 51.2505-.5536 63.021-31.2781 9.8087-25.7422 9.073-106.844-1.2261-118.1926-4.6592-5.536-43.6488-7.1968-53.948-2.2144zm49.0435 8.0271c3.1878 3.5984 6.6209 45.6716 5.64 71.4138-1.7165 41.2429-13.487 62.833-36.7826 67.5386-24.0314 4.9824-48.7984-18.5454-30.1618-28.2333 9.5635-4.9824 12.2609-4.152 16.1843 5.536 7.847 20.7597 24.2766 4.7055 24.2766-23.5279v-13.2863l-6.3757 5.536c-12.9965 11.6255-33.1044 4.152-41.1965-14.947-3.1879-7.4736-4.1687-14.9471-3.433-26.019 2.452-35.4301 16.1843-48.1628 50.2695-46.7788 11.0348.5536 20.5983 1.6607 21.5792 2.768zm-29.4261 105.1831c-2.207 11.9023-5.64 15.7775-8.5826 10.5183-4.414-7.7503-2.9427-16.0542 3.1878-17.4382 2.9426-.5536 5.64-1.384 6.1304-1.6608.4905 0 .2452 3.8752-.7356 8.5807z"/><path d="M579.4717 146.081c-4.9044 8.8576-5.1496 33.2158-.2452 46.502 4.1687 11.072 12.2608 15.7775 18.146 9.9648 3.1879-3.0448 3.6783-7.7503 2.4522-28.787-.9808-13.563-2.207-27.1261-3.1878-29.6173-2.207-6.92-12.506-5.8127-17.1652 1.9376zm12.2609 14.3936c.7356 7.1967 1.4713 18.8222 1.4713 25.7421l-.2453 12.7327-4.659-6.6431c-7.1114-9.4111-7.1114-44.5644 0-44.5644.9808 0 2.452 5.8127 3.433 12.7327zM655.7344 120.6157c-3.9235 1.6608-7.6018 3.3216-8.0922 3.5984-2.6974 2.4912-5.3948 55.0827-4.1687 78.0569l1.7165 28.5101h11.7705c23.0504 0 23.5409-.8303 25.5026-36.5372.9809-17.1615 3.1878-40.6893 4.9044-52.038 1.9617-11.3487 2.9426-21.5902 2.207-22.9742-1.4714-2.768-25.2575-1.9376-33.8401 1.384zm25.0122 13.8399c-.9809 4.9823-2.6974 25.1886-4.414 45.118-1.4712 19.6526-3.1878 37.6445-3.6782 39.3053-.4904 2.2143-4.9044 3.5983-10.2991 3.5983h-9.5635l-1.4713-22.1438c-1.4713-20.2062-.4905-51.2075 2.207-65.601.9808-6.6432 4.9043-8.304 19.1269-8.8575 9.3183-.2768 9.3183-.2768 8.0922 8.5807zM721.698 124.214c-17.4105 11.6256-27.9549 35.1534-27.9549 61.726 0 20.2062 7.1113 34.5996 21.5792 42.35 20.5983 11.3487 51.2505 2.2143 63.5114-18.5455 4.1687-7.4735 4.1687-7.4735-4.1687-15.2238-4.6592-4.4288-10.054-8.0272-12.0157-8.0272-1.9617 0-7.3565 4.4288-11.7705 9.9647-6.6208 8.304-8.5826 9.4112-11.7704 6.6432-5.1496-4.9824-4.9044-38.4749.2452-52.038l4.1687-10.2415 2.4522 10.7951 2.4522 10.7951 14.713-1.6607c19.127-1.9376 22.56-5.536 18.3914-19.9295-4.6592-16.0542-15.9392-23.5278-34.821-23.5278-11.5252 0-17.1652 1.6608-25.0122 6.92zm48.553 9.688c6.1305 8.5807 5.64 16.0543-1.4713 18.2686-9.3182 2.4912-14.713.2768-16.1843-6.92-2.207-10.2414-8.5826-13.563-14.4679-7.4734-6.866 6.9199-10.0539 21.3134-10.0539 44.0108 0 16.331.7357 19.6526 6.1304 25.7422 5.8853 6.3663 6.3757 6.643 13.2418 2.4911 4.1687-2.2144 8.8278-6.6431 10.7896-9.9647 3.1878-4.7055 4.6591-5.2591 8.8278-2.768 9.5635 6.0896 4.414 15.5007-12.7513 23.8046-18.6366 8.5808-40.9514 3.3216-49.0435-12.179-10.2992-19.6527-1.2261-61.4491 15.9391-75.5658 14.4678-11.3487 40.7061-11.072 49.0435.5536zM118.9528 130.3036c-.7356.8304 1.2261 5.8128 4.6592 10.7951l6.1304 9.1344-6.1304 3.5983-6.1305 3.8752 7.6018 10.2415c10.0539 13.563 17.6556 14.1167 8.5826.5536l-6.6209-9.688 6.3757-2.7679 6.6209-2.768-7.847-11.0719c-8.8279-12.4559-11.0348-14.3935-13.2418-11.9023z"/><path d="M90.5076 178.4664c-22.8053 10.7951-31.8783 44.2876-18.3913 66.985 20.5982 34.0461 66.2087 21.3134 72.3392-19.9294.9808-7.4735 2.4521-9.9647 6.1304-9.9647 3.6783 0 5.1496 2.4912 6.6209 11.6255 3.433 22.9742 18.6365 37.9212 38.9896 37.9212 30.1618 0 50.0244-40.1356 33.5948-67.5386-9.5635-15.7774-17.6556-20.7598-33.84-20.7598-15.9392 0-24.5218 5.2592-33.1044 20.2062-3.6783 6.6432-6.6209 8.5808-12.2609 8.5808s-8.5826-1.9376-12.2609-8.5808c-2.6974-4.7055-7.847-11.0719-11.5252-14.1166-7.6018-6.3664-27.2192-8.8576-36.2922-4.4288zm29.1809 10.2415c30.1618 18.2687 17.9009 66.985-16.92 66.985-7.847 0-11.7705-1.9376-18.6366-9.1343-7.6017-7.7503-9.073-11.3487-10.054-22.9742-2.2069-29.6173 22.5601-48.7164 45.6106-34.8765zm89.7497-1.1072c12.506 6.0896 18.8817 19.099 17.6556 35.9837-.9808 11.6255-2.4521 15.2239-10.0539 22.9742-7.3565 7.7503-10.5443 9.1343-20.8435 9.1343-33.1044 0-44.1392-49.5467-14.9583-66.985 10.2992-6.0895 16.92-6.3663 28.2-1.1072z"/></g></g></g></svg>