<svg width="64" height="40" fill="none" xmlns="http://www.w3.org/2000/svg"><path d="M40 20c0 11.046-8.954 20-20 20S0 31.046 0 20 8.954 0 20 0s20 8.954 20 20z" fill="#FF6B09"/><path d="M14.995 14h2.65v9.295h5.744v2.16h-8.394V14zM30.553 25.651c-1.19 0-2.264-.256-3.224-.77a5.802 5.802 0 01-2.242-2.11c-.534-.905-.801-1.92-.801-3.044 0-1.123.267-2.132.801-3.027a5.763 5.763 0 012.242-2.127c.96-.513 2.035-.77 3.224-.77 1.19 0 2.258.257 3.207.77a5.763 5.763 0 012.242 2.127c.545.895.818 1.904.818 3.027 0 1.124-.273 2.139-.818 3.044a5.802 5.802 0 01-2.242 2.11c-.949.514-2.018.77-3.207.77zm0-2.258c.676 0 1.287-.153 1.833-.458.545-.317.97-.753 1.276-1.31.316-.556.475-1.189.475-1.898 0-.709-.159-1.341-.475-1.898a3.235 3.235 0 00-1.276-1.293 3.586 3.586 0 00-1.833-.474c-.676 0-1.287.158-1.833.474a3.346 3.346 0 00-1.293 1.293c-.305.556-.458 1.19-.458 1.898 0 .71.153 1.342.458 1.898.317.557.748.993 1.293 1.31a3.685 3.685 0 001.833.458zM46.88 19.547h2.422v4.648c-.622.469-1.342.829-2.16 1.08a8.386 8.386 0 01-2.471.376c-1.19 0-2.258-.25-3.207-.753a5.802 5.802 0 01-2.242-2.11c-.535-.906-.802-1.926-.802-3.06 0-1.135.267-2.15.802-3.044a5.62 5.62 0 012.258-2.111c.96-.513 2.04-.77 3.24-.77 1.004 0 1.914.17 2.733.508.818.338 1.505.83 2.061 1.473l-1.702 1.57c-.818-.861-1.805-1.292-2.961-1.292-.731 0-1.38.153-1.947.458a3.287 3.287 0 00-1.326 1.293c-.316.556-.475 1.194-.475 1.914 0 .71.159 1.342.475 1.898a3.43 3.43 0 001.31 1.31c.566.305 1.21.458 1.93.458.764 0 1.45-.164 2.062-.491v-3.355zM57.639 25.651c-1.19 0-2.264-.256-3.224-.77a5.802 5.802 0 01-2.242-2.11c-.534-.905-.802-1.92-.802-3.044 0-1.123.268-2.132.802-3.027a5.763 5.763 0 012.242-2.127c.96-.513 2.035-.77 3.224-.77s2.258.257 3.207.77a5.762 5.762 0 012.242 2.127c.545.895.818 1.904.818 3.027 0 1.124-.273 2.139-.818 3.044a5.801 5.801 0 01-2.242 2.11c-.95.514-2.018.77-3.207.77zm0-2.258c.676 0 1.287-.153 1.832-.458.546-.317.971-.753 1.277-1.31.316-.556.474-1.189.474-1.898 0-.709-.158-1.341-.474-1.898a3.235 3.235 0 00-1.277-1.293 3.587 3.587 0 00-1.832-.474c-.677 0-1.288.158-1.833.474a3.347 3.347 0 00-1.293 1.293c-.305.556-.458 1.19-.458 1.898 0 .71.153 1.342.458 1.898.317.557.748.993 1.293 1.31a3.686 3.686 0 001.833.458z" fill="#fff"/></svg>