<svg aria-hidden="true" style="position: absolute; width: 0; height: 0; overflow: hidden;" version="1.1" xmlns="http://www.w3.org/2000/svg" xmlns:xlink="http://www.w3.org/1999/xlink">
<defs>
<symbol id="icon-close-24px-orange" viewBox="0 0 32 32">
<path fill="#ff6b08" style="fill: var(--color1, #ff6b08)" d="M25.333 8.547l-1.88-1.88-7.453 7.453-7.453-7.453-1.88 1.88 7.453 7.453-7.453 7.453 1.88 1.88 7.453-7.453 7.453 7.453 1.88-1.88-7.453-7.453z"></path>
</symbol>
<symbol id="icon-dehaze-24px-orange" viewBox="0 0 32 32">
<path fill="#ff6b08" style="fill: var(--color1, #ff6b08)" d="M1.6 25.6h28.8v-3.2h-28.8v3.2zM1.6 17.6h28.8v-3.2h-28.8v3.2zM1.6 6.4v3.2h28.8v-3.2h-28.8z"></path>
</symbol>
<symbol id="icon-header-magic-logo" viewBox="0 0 85 32">
<path fill="#ff6b08" style="fill: var(--color1, #ff6b08)" d="M13.908 1.051c-2.718 0.417-6.263 1.864-7.829 3.2-0.945 0.807-0.975 0.835-0.148 0.334 1.684-1.002 2.009-0.918 0.709 0.195-0.709 0.612-1.389 1.113-1.536 1.141-0.118 0-0.827 0.918-1.595 2.003-0.768 1.113-1.448 2.087-1.536 2.17s-0.177 0.25-0.177 0.417c0 0.807-0.857 2.894-1.123 2.727-0.177-0.111-0.236 0.083-0.118 0.529 0.118 0.362 0.059 1.363-0.059 2.198-0.65 3.617 1.477 8.653 5.022 11.936 1.95 1.808 5.2 3.478 6.263 3.2 0.502-0.139 0.561-0.111 0.207 0.111-0.502 0.334-0.768 0.306 3.398 0.417 4.757 0.139 8.863-1.252 11.877-4.062 0.857-0.807 1.507-1.502 1.448-1.558-0.089-0.056 0.325-0.529 0.886-1.029 0.709-0.64 0.945-1.085 0.798-1.419-0.089-0.278-0.059-0.417 0.089-0.334 0.148 0.111 0.295-0.111 0.325-0.417 0-0.334 0.236-1.308 0.502-2.142 0.591-1.892 0.62-5.37 0.059-6.344-0.236-0.417-0.591-1.169-0.768-1.642-0.207-0.501-0.473-0.835-0.62-0.751s-0.266-0.083-0.266-0.334c0-0.278-0.089-0.389-0.177-0.306-0.177 0.167-0.857-0.779-1.566-2.226-0.355-0.696-2.511-2.643-3.25-2.894-0.266-0.111 0.414 0.668 1.507 1.725 1.861 1.808 2.57 2.866 2.186 3.227-0.089 0.111-0.177 0-0.177-0.223 0-0.417-1.064-1.196-1.654-1.224-0.177 0-0.857-0.473-1.477-1.057-1.714-1.558-2.157-1.252-0.561 0.417 0.739 0.779 1.507 1.697 1.654 2.003 0.266 0.501 0.207 0.501-0.295-0.083-0.414-0.417-0.827-0.584-1.182-0.501s-0.798-0.083-1.093-0.39c-0.295-0.306-0.975-0.807-1.507-1.113-0.916-0.529-1.329-1.363-0.68-1.363 0.177 0 0.295-0.139 0.295-0.306 0-0.139-0.148-0.195-0.355-0.083-0.207 0.139-0.236 0.083-0.059-0.195 0.148-0.223 0.207-0.584 0.177-0.835-0.059-0.25 0.118-0.445 0.384-0.445 0.236 0 0.443 0.111 0.443 0.25s0.148 0.167 0.325 0.056c0.207-0.111 0-0.445-0.591-0.862-1.064-0.779-1.211-1.335-0.295-1.113 0.561 0.139 0.561 0.111 0.177-0.445-0.443-0.64-0.561-0.723-2.777-1.669-0.857-0.362-1.477-0.751-1.359-0.835 0.089-0.111 0.030-0.195-0.148-0.195-0.207 0-0.355 0.111-0.355 0.278 0 0.139-0.62 0.278-1.389 0.25l-1.418-0.028 1.152-0.25c1.211-0.278 1.802-0.556 1.034-0.501-0.236 0.028-1.477 0.195-2.777 0.39zM14.262 1.635c-0.089 0.083-0.355 0.111-0.561 0.028-0.236-0.083-0.148-0.167 0.177-0.167 0.325-0.028 0.502 0.056 0.384 0.139zM25.134 8.98c0.295 0.306 0.473 0.556 0.384 0.556s-0.384-0.25-0.68-0.556c-0.295-0.306-0.473-0.556-0.384-0.556s0.384 0.25 0.68 0.556zM30.009 24.283c-0.177 0.306-0.384 0.556-0.473 0.556-0.059 0 0-0.25 0.177-0.556s0.384-0.556 0.473-0.556c0.059 0 0 0.25-0.177 0.556zM25.163 36.526c0 0.056 0.207 0.195 0.473 0.278 0.236 0.083 0.355 0.056 0.266-0.111-0.177-0.278-0.739-0.39-0.739-0.167zM27.526 38.223c0.384 0.39 0.768 0.696 0.827 0.696 0.089 0-0.148-0.306-0.532-0.696s-0.768-0.696-0.827-0.696c-0.089 0 0.148 0.306 0.532 0.696zM34.115 46.57c0 2.254 0.089 2.782 0.236 2.031 0.148-0.584 0.148-1.948 0-3.060l-0.266-2.031 0.030 3.060z"></path>
<path fill="#000" style="fill: var(--color2, #000)" d="M15.751 3.84c-0.579 0.149-1.475 0.476-1.975 0.684-0.5 0.238-2.001 0.476-3.318 0.535-2.001 0.089-2.581 0.238-3.581 0.921-0.974 0.654-2.054 1.902-2.054 2.378 0 0.089 0.553 0.059 1.264 0l1.238-0.149-0.948 0.773c-1.422 1.129-2.133 2.972-2.133 5.618 0.026 2.289 0.737 5.38 1.738 7.49l0.553 1.189 0.158-3.121c0.211-4.28 0.316-4.459 1.527-2.913 1.053 1.308 1.448 1.338 1.685 0.030 0.395-2.229 2.581-4.25 4.582-4.25 0.922 0 1.264 0.178 2.028 1.011 0.816 0.951 2.265 3.864 2.265 4.607 0 1.367 3.186-2.17 3.713-4.102 0.316-1.189 0.342-1.219 0.843-0.713 0.79 0.803 1.685 3.329 2.212 6.182 0.263 1.397 0.527 2.526 0.632 2.526 0.316 0 1.238-2.824 1.554-4.756 0.527-3.329-0.158-6.48-2.028-9.244-2.265-3.388-6.82-5.529-9.954-4.696zM34.552 9.101l-1.422 0.832 0.079 3.715c0.079 3.775 0.5 10.106 0.737 11.057 0.132 0.476 0.342 0.505 1.633 0.357 2.423-0.327 2.502-0.357 2.317-1.456-0.369-1.932-0.737-5.499-0.632-6.034 0.079-0.357 0.369 0.030 0.948 1.308l0.843 1.873h2.581l0.922-2.17 0.948-2.14-0.105 1.338c-0.079 0.743-0.184 2.943-0.263 4.875l-0.132 3.537 1.501-0.178c0.843-0.119 1.922-0.357 2.423-0.535l0.895-0.357-0.184-1.962c-0.079-1.070-0.158-4.607-0.158-7.847v-5.885l-0.974-0.446c-0.527-0.268-1.343-0.535-1.791-0.624-0.711-0.119-0.895 0-1.527 1.011-0.395 0.654-1.132 2.021-1.606 3.062l-0.895 1.873-0.527-1.159c-0.29-0.624-1.080-1.991-1.738-3.032-1.422-2.17-1.791-2.259-3.871-1.011zM37.949 10.885c0.579 0.951 1.448 2.526 1.949 3.537l0.895 1.813 1.369-3.002c1.975-4.34 1.922-4.28 3.291-3.775l1.106 0.446 0.079 7.252c0.026 4.013-0.026 7.371-0.132 7.49-0.132 0.119-0.79 0.327-1.501 0.416l-1.264 0.238 0.132-0.862c0.079-0.476 0.237-3.21 0.316-6.064 0.184-6.004 0.184-6.004-1.896-1.278-1.132 2.616-1.238 2.764-2.001 2.764-0.79 0-0.922-0.178-1.949-2.467-1.843-4.072-1.896-4.102-1.896-0.803 0 1.546 0.158 3.834 0.342 5.053 0.211 1.219 0.342 2.259 0.316 2.259 0 0.030-0.579 0.119-1.238 0.178l-1.238 0.149-0.158-1.665c-0.184-1.843-0.685-12.008-0.606-12.097 0.395-0.357 2.265-1.278 2.607-1.308 0.263 0 0.895 0.713 1.475 1.724zM70.258 9.072c-0.342 0.357-0.421 0.832-0.316 1.813 0.079 0.713 0.237 1.427 0.395 1.605s0.922 0.208 1.975 0.089l1.685-0.208 0.316-1.605c0.184-0.862 0.263-1.724 0.158-1.902-0.079-0.149-0.974-0.297-1.975-0.297-1.343 0-1.922 0.119-2.238 0.505zM73.734 9.577c0.026 0.030-0.026 0.446-0.158 0.951-0.158 0.743-0.342 0.892-1.369 1.040-1.369 0.238-1.633 0.030-1.501-1.1 0.053-0.684 0.237-0.892 0.869-1.040s1.896-0.059 2.159 0.149zM51.326 12.847c-0.737 0.238-1.606 0.773-2.080 1.308-0.711 0.803-0.79 1.040-0.579 1.724 0.29 0.921 1.764 1.902 2.818 1.902 0.606 0 0.737-0.149 0.737-0.684 0-0.386 0.158-0.951 0.369-1.278 0.369-0.535 0.395-0.535 0.658 0.267 0.579 1.724 0.448 1.991-1.159 1.991-2.686 0-4.081 1.159-4.081 3.418 0 2.17 1.396 3.418 3.792 3.418 0.632 0 1.211 0.119 1.264 0.297 0.053 0.149 0.843 0.327 1.791 0.357l1.712 0.089 0.474-2.526c0.263-1.397 0.5-3.745 0.527-5.202 0.053-3.18-0.29-4.042-2.001-4.934-1.29-0.654-2.423-0.684-4.239-0.149zM55.276 13.768c1.001 0.476 1.685 1.843 1.685 3.418 0 1.308-0.79 6.985-1.053 7.431-0.132 0.267-0.5 0.327-1.132 0.178-0.79-0.178-0.895-0.297-0.764-0.832 0.105-0.535 0.053-0.594-0.369-0.386-0.737 0.357-2.396 0.535-3.134 0.327-1.106-0.327-1.712-1.219-1.712-2.556 0-1.724 1.027-2.378 3.634-2.378h1.896v-1.189c0-1.456-0.632-3.27-1.106-3.27-0.5 0-1.527 0.862-1.527 1.278-0.026 0.921-0.448 1.219-1.264 0.832-1.58-0.743-1.185-2.021 0.895-2.853 1.343-0.535 2.791-0.565 3.95 0z"></path>
<path fill="#000" style="fill: var(--color2, #000)" d="M53.037 19.831c-0.342 0.089-0.869 0.535-1.159 0.981-0.5 0.743-0.5 0.832-0.079 1.546 0.421 0.773 1.29 0.981 1.949 0.535 0.184-0.149 0.395-0.951 0.5-1.783 0.158-1.665 0.105-1.694-1.211-1.278zM53.432 21.229c-0.079 0.267-0.158 0.594-0.158 0.743 0 0.357-0.711 0.327-0.922-0.030-0.237-0.416 0.342-1.189 0.843-1.189 0.263 0 0.342 0.178 0.237 0.476zM61.569 13.411c-0.448 0.178-1.053 0.565-1.369 0.803-1.633 1.338-2.396 5.083-1.554 7.579 0.474 1.367 1.738 2.824 2.475 2.824 0.211 0-0.237 0.357-1.027 0.803-1.211 0.713-1.422 0.951-1.343 1.575 0.158 1.189 0.816 2.081 1.975 2.705 2.686 1.367 5.503-0.059 6.767-3.359 1.053-2.764 0.974-11.473-0.132-12.692-0.5-0.594-4.687-0.773-5.793-0.238zM66.835 14.273c0.342 0.386 0.711 4.904 0.606 7.669-0.184 4.429-1.448 6.747-3.95 7.252-2.581 0.535-5.24-1.991-3.239-3.032 1.027-0.535 1.317-0.446 1.738 0.594 0.843 2.229 2.607 0.505 2.607-2.526v-1.427l-0.685 0.594c-1.396 1.248-3.555 0.446-4.424-1.605-0.342-0.803-0.448-1.605-0.369-2.794 0.263-3.805 1.738-5.172 5.398-5.023 1.185 0.059 2.212 0.178 2.317 0.297zM63.675 25.568c-0.237 1.278-0.606 1.694-0.922 1.129-0.474-0.832-0.316-1.724 0.342-1.873 0.316-0.059 0.606-0.149 0.658-0.178 0.053 0 0.026 0.416-0.079 0.921z"></path>
<path fill="#000" style="fill: var(--color2, #000)" d="M62.333 16.116c-0.527 0.951-0.553 3.567-0.026 4.994 0.448 1.189 1.317 1.694 1.949 1.070 0.342-0.327 0.395-0.832 0.263-3.091-0.105-1.456-0.237-2.913-0.342-3.18-0.237-0.743-1.343-0.624-1.843 0.208zM63.649 17.662c0.079 0.773 0.158 2.021 0.158 2.764l-0.026 1.367-0.5-0.713c-0.764-1.011-0.764-4.785 0-4.785 0.105 0 0.263 0.624 0.369 1.367zM70.522 13.382c-0.421 0.178-0.816 0.357-0.869 0.386-0.29 0.268-0.579 5.915-0.448 8.382l0.184 3.061h1.264c2.475 0 2.528-0.089 2.739-3.923 0.105-1.843 0.342-4.369 0.527-5.588 0.211-1.219 0.316-2.318 0.237-2.467-0.158-0.297-2.712-0.208-3.634 0.149zM73.208 14.868c-0.105 0.535-0.29 2.705-0.474 4.845-0.158 2.11-0.342 4.042-0.395 4.221-0.053 0.238-0.527 0.386-1.106 0.386h-1.027l-0.158-2.378c-0.158-2.17-0.053-5.499 0.237-7.044 0.105-0.713 0.527-0.892 2.054-0.951 1.001-0.030 1.001-0.030 0.869 0.921zM77.605 13.768c-1.87 1.248-3.002 3.775-3.002 6.628 0 2.17 0.764 3.715 2.317 4.548 2.212 1.219 5.503 0.238 6.82-1.991 0.448-0.803 0.448-0.803-0.448-1.635-0.5-0.476-1.080-0.862-1.29-0.862s-0.79 0.476-1.264 1.070c-0.711 0.892-0.922 1.011-1.264 0.713-0.553-0.535-0.527-4.132 0.026-5.588l0.448-1.1 0.527 2.318 1.58-0.178c2.054-0.208 2.423-0.594 1.975-2.14-0.5-1.724-1.712-2.526-3.739-2.526-1.238 0-1.843 0.178-2.686 0.743zM82.819 14.808c0.658 0.921 0.606 1.724-0.158 1.962-1.001 0.267-1.58 0.030-1.738-0.743-0.237-1.1-0.922-1.456-1.554-0.803-0.737 0.743-1.080 2.289-1.080 4.726 0 1.754 0.079 2.11 0.658 2.764 0.632 0.684 0.685 0.713 1.422 0.267 0.448-0.238 0.948-0.713 1.159-1.070 0.342-0.505 0.5-0.565 0.948-0.297 1.027 0.654 0.474 1.665-1.369 2.556-2.001 0.921-4.397 0.357-5.266-1.308-1.106-2.11-0.132-6.599 1.712-8.114 1.554-1.219 4.371-1.189 5.266 0.059zM12.881 14.422c-0.079 0.089 0.132 0.624 0.5 1.159l0.658 0.981-0.658 0.386-0.658 0.416 0.816 1.1c1.080 1.456 1.896 1.516 0.922 0.059l-0.711-1.040 0.685-0.297 0.711-0.297-0.843-1.189c-0.948-1.338-1.185-1.546-1.422-1.278z"></path>
<path fill="#000" style="fill: var(--color2, #000)" d="M9.826 19.594c-2.449 1.159-3.423 4.756-1.975 7.193 2.212 3.656 7.11 2.289 7.768-2.14 0.105-0.803 0.263-1.070 0.658-1.070s0.553 0.267 0.711 1.248c0.369 2.467 2.001 4.072 4.187 4.072 3.239 0 5.372-4.31 3.608-7.252-1.027-1.694-1.896-2.229-3.634-2.229-1.712 0-2.633 0.565-3.555 2.17-0.395 0.713-0.711 0.921-1.317 0.921s-0.922-0.208-1.317-0.921c-0.29-0.505-0.843-1.189-1.238-1.516-0.816-0.684-2.923-0.951-3.897-0.476zM12.96 20.693c3.239 1.962 1.922 7.193-1.817 7.193-0.843 0-1.264-0.208-2.001-0.981-0.816-0.832-0.974-1.219-1.080-2.467-0.237-3.18 2.423-5.231 4.898-3.745zM22.597 20.575c1.343 0.654 2.028 2.051 1.896 3.864-0.105 1.248-0.263 1.635-1.080 2.467-0.79 0.832-1.132 0.981-2.238 0.981-3.555 0-4.74-5.32-1.606-7.193 1.106-0.654 1.817-0.684 3.028-0.119z"></path>
<path fill="#000" style="fill: var(--color2, #000)" d="M34.040 13.423v2.255h0.107v2.148h0.107v2.040h0.107v1.718h0.107v1.074h0.107v1.181h0.107v0.322h0.644v-0.107h0.859v-0.107h0.752v-0.107h0.107v-0.644h-0.107v-0.752h-0.107v-0.644h-0.107v-0.752h-0.107v-1.074h-0.107v-1.611h-0.107v-3.758h0.107v-0.322h0.107v-0.107h0.107v0.107h0.107v0.107l0.215 0.107v0.215h0.107v0.215h0.107v0.215h0.107v0.215h0.107v0.215h0.107v0.215h0.107v0.215h0.107v0.215h0.107v0.322h0.107v0.215h0.107v0.215h0.107v0.215h0.107v0.215h0.107v0.215h0.107v0.215h0.107v0.322h0.107v0.215h0.107v0.215h0.107v0.215h0.107l0.107 0.43 0.215 0.107v0.215h0.107v0.107h0.215v0.107h0.322v0.107h0.537v-0.107h0.322v-0.107l0.215-0.107 0.107-0.43 0.215-0.107v-0.215h0.107v-0.215h0.107v-0.215h0.107v-0.322h0.107v-0.215h0.107v-0.215h0.107v-0.322h0.107v-0.215h0.107v-0.215h0.107v-0.322h0.107v-0.215h0.107v-0.215h0.107v-0.322h0.107v-0.215h0.107v-0.215h0.107v-0.215h0.107v-0.215h0.107v-0.215h0.107v-0.215h0.107v-0.215h0.107l0.107-0.43h0.107l0.107-0.215h0.215v0.107h0.107v0.966h0.107v0.859h-0.107v4.081h-0.107v2.362h-0.107v1.718h-0.107v1.074h-0.107v0.43h0.322v-0.107h0.644v-0.107h0.537v-0.107h0.537v-0.107h0.322v-0.107h0.215v-0.107h0.107v-1.181h0.107v-10.416h-0.107v-3.114h-0.215v-0.107h-0.322v-0.107h-0.215v-0.107h-0.322v-0.107h-0.322v-0.107h-0.43v-0.107l-0.43 0.107v0.107h-0.107v0.107l-0.215 0.107v0.215l-0.215 0.107v0.215h-0.107v0.215h-0.107v0.215h-0.107v0.215h-0.107v0.215h-0.107v0.215h-0.107v0.215h-0.107v0.215h-0.107v0.215h-0.107v0.215h-0.107v0.322h-0.107v0.215h-0.107v0.215h-0.107v0.215h-0.107v0.215h-0.107v0.322h-0.107v0.215h-0.107v0.215h-0.107v0.215h-0.107v0.215h-0.107v0.322h-0.107v0.215h-0.107v0.215h-0.107v0.215h-0.107v0.215h-0.107v0.322h-0.107v0.215h-0.215v-0.215h-0.107v-0.215h-0.107v-0.215h-0.107v-0.215h-0.107v-0.215h-0.107v-0.215h-0.107v-0.215h-0.107v-0.215h-0.107v-0.215h-0.107v-0.215h-0.107v-0.215h-0.107v-0.215h-0.107l-0.107-0.43-0.215-0.107v-0.215h-0.107v-0.215h-0.107v-0.215h-0.107l-0.107-0.43-0.215-0.107v-0.215h-0.107l-0.107-0.43-0.215-0.107v-0.215l-0.215-0.107-0.107-0.43h-0.107v-0.107h-0.107v-0.215h-0.107v-0.107l-0.215-0.107v-0.215h-0.107v-0.107h-0.107l-0.107-0.215h-0.215v-0.107h-0.43v0.107h-0.322v0.107h-0.215v0.107h-0.215v0.107h-0.215v0.107h-0.215v0.107h-0.215v0.107h-0.215l-0.107 0.215h-0.215v0.107h-0.215v0.107h-0.107v2.899h0.107v0.107z"></path>
<path fill="#fff" style="fill: var(--color3, #fff)" d="M48.966 22.121l0.107 0.644h0.107v0.107h0.107v0.215h0.107v0.107h0.107v0.107h0.107l0.107 0.215h0.215l0.107 0.215h0.322v0.107h0.43v0.107h1.289v-0.107h0.752v-0.107h0.322v-0.107h0.322v-0.107h0.322v-0.107h0.215v0.107h0.107v0.322h-0.107v0.644h0.107v0.107h0.215v0.107h0.43v0.107h0.966v-0.107h0.107v-0.215h0.107v-0.43h0.107v-0.537h0.107v-0.537h0.107v-0.644h0.107v-0.752h0.107l0.107-1.503h0.107l0.107-1.933h0.107v-1.718h-0.107v-0.537h-0.107v-0.322h-0.107v-0.322h-0.107l-0.107-0.43-0.215-0.107v-0.215h-0.107v-0.107h-0.107v-0.107h-0.107v-0.107h-0.107l-0.107-0.215h-0.215v-0.107h-0.215v-0.107h-0.215v-0.107h-0.322v-0.107h-0.43v-0.107h-1.181l-1.074 0.107v0.107l-0.644 0.107v0.107h-0.215v0.107h-0.215v0.107l-0.43 0.107v0.107h-0.107v0.107h-0.215v0.107h-0.107v0.107h-0.107v0.107l-0.215 0.107v0.215l-0.215 0.107v0.644h0.107v0.215h0.107v0.107h0.107v0.107h0.107l0.107 0.215h0.215v0.107h0.215v0.107h0.215v0.107h0.537v-0.107h0.215v-0.107h0.107v-0.322h0.107v-0.644l0.215-0.107v-0.215h0.107v-0.107h0.107l0.107-0.215h0.215l0.107-0.215h0.215v-0.107h0.215v-0.107h0.43v0.107h0.107v0.107l0.215 0.107 0.107 0.43h0.107v0.322h0.107v0.322h0.107v0.43h0.107v0.537h0.107v2.148h-2.899v0.107h-0.752v0.107h-0.43v0.107h-0.322v0.107h-0.215v0.107h-0.107l-0.107 0.215h-0.215v0.215l-0.215 0.107v0.215h-0.107v0.322h-0.107v1.396h0.107v0.107zM51.544 21.906v-0.107h-0.107v-0.322h0.107v-0.322h0.107v-0.215h0.107v-0.107l0.215-0.107v-0.215h0.107v-0.107h0.107v-0.107h0.107l0.107-0.215h0.215v-0.107h0.107v-0.107h0.215v-0.107h0.43v-0.107h0.322v-0.107h0.43v0.107l0.215 0.107v1.396h-0.107v0.644h-0.107v0.537h-0.107v0.215h-0.107l-0.107 0.43h-0.215v0.107h-0.322v0.107l-0.859-0.107-0.107-0.215h-0.215v-0.107l-0.215-0.107v-0.215h-0.107v-0.215l-0.215-0.107v-0.215zM59.275 20.832v0.322h0.107v0.322h0.107v0.322h0.107v0.215h0.107l0.107 0.43h0.107v0.107l0.215 0.107v0.215h0.107v0.107h0.107v0.107h0.107l0.107 0.215h0.215l0.107 0.215h0.215v0.107h0.215v0.107h0.215v0.107h0.43v0.107h0.966v-0.107h0.322v-0.107h0.215l0.107-0.215h0.215v-0.107h0.107v-0.107h0.107v-0.107h0.107v-0.107h0.107l0.107-0.215h0.215v-0.107h0.107v2.148h-0.107v0.644h-0.107v0.537h-0.107v0.322h-0.107v0.322h-0.107l-0.107 0.43h-0.107v0.107h-0.107v0.107h-0.107v0.107h-0.107l-0.107 0.215h-0.215v0.107h-0.537v-0.107h-0.215v-0.107h-0.107v-0.107l-0.215-0.107v-0.215h-0.107v-0.215h-0.107v-0.215h-0.107v-0.215h-0.107l-0.107-0.43h-0.107v-0.107h-0.215v-0.107h-0.43v0.107h-0.215v0.107h-0.215v0.107l-0.43 0.107v0.107h-0.107v0.107l-0.215 0.107v0.215h-0.107v0.644h0.107l0.107 0.43h0.107v0.107h0.107v0.107h0.107v0.107h0.107l0.107 0.215h0.215l0.107 0.215h0.215v0.107h0.215v0.107h0.215v0.107h0.322v0.107h0.43v0.107h1.289v-0.107h0.537v-0.107h0.322v-0.107h0.215v-0.107h0.215v-0.107h0.215l0.107-0.215h0.215v-0.107h0.107v-0.107h0.107v-0.107h0.107v-0.107h0.107v-0.107l0.215-0.107v-0.215h0.107v-0.107l0.215-0.107v-0.215h0.107v-0.215h0.107v-0.215h0.107v-0.215h0.107v-0.215h0.107v-0.322h0.107v-0.43h0.107v-0.322h0.107v-0.43h0.107v-0.644h0.107v-0.537h0.107v-1.503h0.107v-2.685h-0.107v-1.933h-0.107v-1.181h-0.107v-0.966h-0.107v-0.43h-0.107v-0.43h-0.107v-0.215h-0.322v-0.107h-0.644v-0.107h-3.221v0.107l-0.859 0.107v0.107h-0.215v0.107h-0.215v0.107l-0.43 0.107v0.107h-0.107l-0.107 0.215h-0.215v0.215h-0.107v0.107l-0.215 0.107v0.215l-0.215 0.107v0.215h-0.107v0.215h-0.107v0.322h-0.107v0.322h-0.107v0.322h-0.107v0.43h-0.107v0.859h-0.107v2.255h0.107v0.107zM61.96 19.436v-0.107h-0.107v-1.289h0.107v-1.074h0.107v-0.537h0.107l0.107-0.43h0.107v-0.107h0.107v-0.107h0.107l0.107-0.215h0.215v-0.107h0.215v-0.107h0.537v0.107l0.43 0.107v0.215h0.107v0.43h0.107v0.752h0.107v1.289h0.107v1.503h0.107v1.718h-0.107v0.43h-0.107v0.107h-0.107v0.215h-0.107v0.107h-0.215v0.107h-0.752v-0.107h-0.215v-0.107h-0.107v-0.107h-0.107v-0.107l-0.215-0.107v-0.215h-0.107v-0.215h-0.107v-0.215h-0.107l-0.107-0.644h-0.107v-0.537h-0.107v-0.644zM70.121 21.477v1.825h0.107v0.966h1.611v-0.107l0.43-0.107v-0.322h0.107v-0.859h0.107v-1.289h0.107v-1.396h0.107v-1.289h0.107v-1.181h0.107v-1.181h0.107v-0.859h0.107v-0.966h0.107v-0.644h-0.215v-0.107h-1.074v0.107h-0.859v0.107h-0.322v0.107h-0.107v0.107h-0.107v0.107l-0.215 0.107v0.644h-0.107v0.859h-0.107v1.396h-0.107v3.866h0.107v0.107zM70.872 11.49h0.107v0.107h1.074v-0.107h0.644v-0.107h0.322v-0.107h0.215v-0.107h0.107v-0.215h0.107v-0.322h0.107v-0.43h0.107v-0.644h-0.215v-0.107h-0.537v-0.107h-0.859v0.107h-0.644v0.107l-0.43 0.107v0.107h-0.107v0.215h-0.107v1.396h0.107v0.107zM75.49 21.154v0.644h0.107v0.43h0.107v0.322h0.107v0.215h0.107l0.107 0.43h0.107v0.107h0.107v0.107h0.107v0.107h0.107v0.107h0.107l0.107 0.215h0.215l0.107 0.215h0.215v0.107h0.215v0.107h0.322v0.107h0.215v0.107h0.752v0.107h0.966v-0.107h0.537v-0.107l0.644-0.107v-0.107h0.215v-0.107h0.215v-0.107h0.215v-0.107l0.43-0.107 0.107-0.215h0.215v-0.107h0.107v-0.107h0.107v-0.107l0.215-0.107v-0.215l0.215-0.107v-0.644h-0.107v-0.215h-0.107v-0.107h-0.107l-0.107-0.215h-0.322v-0.107l-0.43 0.107v0.215l-0.215 0.107v0.215h-0.107v0.107h-0.107v0.107h-0.107v0.107h-0.107v0.107h-0.107v0.107h-0.107l-0.107 0.215h-0.215l-0.107 0.215h-0.215v0.107h-0.215v0.107h-0.537v-0.107h-0.215v-0.107h-0.107v-0.215h-0.107v-0.107h-0.107v-0.107h-0.107v-0.107l-0.215-0.107v-0.215h-0.107v-0.215h-0.107v-0.322h-0.107v-3.544h0.107v-0.859h0.107v-0.537h0.107v-0.322h0.107v-0.322h0.107v-0.215h0.107v-0.215h0.107v-0.215h0.107v-0.107h0.107v-0.107h0.107v-0.107h0.107l0.107-0.215h0.322v-0.107h0.215v0.107l0.43 0.107v0.215h0.107v0.107h0.107v0.215h0.107l0.107 0.644h0.107v0.215h0.107v0.107h0.107l0.107 0.215h0.322v0.107h0.644v-0.107h0.322v-0.107h0.215v-0.107h0.107v-0.107l0.215-0.107v-0.644h-0.107v-0.322h-0.107l-0.107-0.43h-0.107v-0.107h-0.107v-0.107h-0.107v-0.107h-0.107l-0.107-0.215h-0.215v-0.107h-0.215v-0.107h-0.215v-0.107h-0.43v-0.107h-0.752v-0.107h-0.215v0.107h-0.966v0.107h-0.43v0.107h-0.322v0.107h-0.215v0.107h-0.215v0.107l-0.43 0.107v0.107h-0.107v0.107h-0.107v0.107h-0.107v0.107h-0.107v0.107h-0.107v0.107h-0.107v0.107l-0.215 0.107v0.215l-0.215 0.107v0.215h-0.107v0.215l-0.215 0.107v0.322h-0.107v0.215h-0.107v0.322h-0.107v0.215h-0.107v0.43h-0.107v0.322h-0.107v0.43h-0.107v0.644h-0.107v1.181h-0.107v0.644h0.107v0.107z"></path>
<path fill="#ff6b08" style="fill: var(--color1, #ff6b08)" d="M34.040 13.638v-0.107h-0.107v0.537h0.107v-0.43zM34.040 13.423v-0.107h-0.107v0.215h0.107v-0.107z"></path>
<path fill="#fff" style="fill: var(--color3, #fff)" d="M34.040 14.175l0.108 0.645M34.148 15.463c-0.090 1.434 0.055 1.758 0.107 2.148 0.061 0.457 0.089 0.993 0.107 1.503 0.018 0.527-0.019 1.084 0 1.611 0.018 0.51 0.052 1.013 0.107 1.503 0.054 0.475 0.151 1.041 0.215 1.396 0.039 0.221-0.026 0.444 0.107 0.537 0.214 0.149 0.986-0.158 1.396-0.215 0.32-0.045 0.727 0.070 0.859-0.107 0.161-0.217-0.13-0.844-0.215-1.289-0.092-0.483-0.251-1.009-0.322-1.503-0.069-0.471-0.12-1.003-0.107-1.396 0.010-0.29 0.097-0.457 0.107-0.752 0.014-0.415-0.072-1.002-0.107-1.503-0.036-0.501-0.107-1.002-0.107-1.503s0.098-1.228 0.107-1.503c0.003-0.104 0-0.215 0-0.215M34.040 11.597c0.053-1.469 0.62-1.534 0.966-1.718 0.333-0.175 0.66-0.387 0.966-0.537 0.263-0.129 0.591-0.394 0.752-0.322 0.146 0.067 0.094 0.433 0.215 0.644 0.145 0.256 0.671 0.718 0.644 0.752-0.013 0.017-0.215-0.107-0.215-0.107"></path>
<path fill="#fff" style="fill: var(--color3, #fff)" d="M36.832 9.45c0.915 1.132 0.926 1.464 1.074 1.718 0.142 0.244 0.372 0.391 0.537 0.644 0.199 0.303 0.381 0.761 0.537 1.074 0.121 0.242 0.194 0.418 0.322 0.644 0.151 0.27 0.367 0.543 0.537 0.859 0.191 0.357 0.378 0.848 0.537 1.181 0.118 0.248 0.322 0.644 0.322 0.644M37.799 10.738c0.444 0.692 0.43 0.752 0.431 0.753"></path>
<path fill="#fff" style="fill: var(--color3, #fff)" d="M34.148 10.255s-0.159 0.144-0.211 0.241c-0.059 0.109-0.090 0.253-0.109 0.389-0.020 0.142-0.002 0.294-0.002 0.446-0 0.16-0.011 0.328 0 0.491s0.041 0.329 0.064 0.493c0.023 0.164 0.047 0.328 0.075 0.489 0.027 0.159 0.058 0.316 0.090 0.47 0.031 0.152 0.066 0.301 0.1 0.45 0.034 0.148 0.078 0.289 0.104 0.44 0.027 0.158 0.039 0.328 0.052 0.488 0.013 0.155 0.019 0.319 0.026 0.459 0.006 0.119 0.013 0.33 0.013 0.33z"></path>
<path fill="#ff6b08" style="fill: var(--color1, #ff6b08)" d="M34.362 10.201q0.073 0-0.249-0.083l0.069 0.274q0.254-0.191 0.18-0.191zM34.113 10.118q-0.103 0.026-0.329 0.244l0.304 0.267q-0.009-0.211 0.093-0.237l-0.069-0.274zM33.784 10.362q-0.088 0.1-0.169 0.463l0.425 0.119q-0.039-0.214 0.049-0.315l-0.304-0.267zM33.615 10.825q-0.040 0.142-0.012 0.505l0.444 0.002q-0.048-0.246-0.008-0.387l-0.425-0.119zM33.603 11.329q-0.001 0.162 0.009 0.492l0.427-0q0.008-0.328 0.009-0.49l-0.444-0.002zM33.612 11.822q0 0.164 0.072 0.52l0.411-0.054q-0.056-0.302-0.057-0.466l-0.427 0zM33.684 12.341q0.021 0.162 0.079 0.494l0.403-0.062q-0.050-0.323-0.071-0.485l-0.411 0.054zM33.763 12.835q0.024 0.156 0.090 0.478l0.404-0.078q-0.066-0.306-0.090-0.463l-0.403 0.062zM33.853 13.313q0.029 0.149 0.097 0.457l0.411-0.091q-0.075-0.294-0.103-0.443l-0.404 0.078zM33.95 13.77q0.032 0.146 0.1 0.444l0.418-0.099q-0.075-0.291-0.108-0.436l-0.411 0.091zM34.050 14.213q0.037 0.158 0.053 0.461l0.416-0.044q-0.014-0.358-0.051-0.516l-0.418 0.099zM34.102 14.675q0.016 0.151 0.022 0.449l0.425-0.024q-0.014-0.318-0.030-0.469l-0.416 0.044 0.473 0.896c0-0.117-0.095-0.213-0.213-0.213s-0.213 0.095-0.213 0.213 0.095 0.213 0.213 0.213 0.213-0.095 0.213-0.213zM34.124 15.123l0.026 0.459 0.425-0.024-0.026-0.459-0.425 0.024z"></path>
<path fill="#fff" style="fill: var(--color3, #fff)" d="M40.913 16.215v0"></path>
<path fill="#fff" style="fill: var(--color3, #fff)" d="M34.052 14.775v-0.041h-0.041v0.123h0.204v0.123h0.041v-0.694h0.041v-0.163l-0.082-0.041v-0.286h-0.041v0.204h-0.041v0.122l0.082 0.041v0.163h-0.041v0.082h-0.041v-0.245h-0.041v0.408h0.041v0.082h0.041v0.163h-0.123v-0.041z"></path>
<path fill="#000" style="fill: var(--color2, #000)" d="M34.011 13.346v0.041h0.041v0.082h-0.041v0.041h0.041v0.163h0.041l0.041-0.082v-0.245h-0.041v-0.082h-0.041v0.041h-0.082v0.041h0.041z"></path>
<path fill="#fff" style="fill: var(--color3, #fff)" d="M34.052 13.714v0.082h0.041v-0.041h0.041v0.041l0.082-0.041-0.041-0.245v-0.041h-0.041v-0.082h-0.082v0.041h-0.041v0.245h0.041v0.041zM34.134 13.591v0.082h-0.041v-0.123h0.041v0.041z"></path>
<path fill="#fff" style="fill: var(--color3, #fff)" d="M34.011 13.305v0.49h0.041v-0.327l0.082 0.041v-0.082h0.041v-0.245h-0.041v0.082h-0.163v0.041h0.041zM34.093 13.346h0.041v0.041h-0.082v-0.041h0.041zM34.052 14.122v-0.041l-0.082 0.041v0.204h0.082v-0.082h0.041v-0.123h-0.041z"></path>
<path fill="#fff" style="fill: var(--color3, #fff)" d="M34.052 14.734h0.082v-0.041h-0.041v-0.204h-0.041v-0.082h0.041v-0.082h-0.082v0.367h0.041v0.041z"></path>
<path fill="#fff" style="fill: var(--color3, #fff)" d="M34.052 14.122l-0.041 0.245h0.041v-0.082h0.041v-0.041h0.041v0.082h-0.041v0.041h0.082v-0.041h0.041v0.286h-0.041v-0.041h-0.082v0.082h-0.041v-0.123h-0.041v0.327h0.245v-0.082h-0.041v-0.041h-0.082v-0.041h0.123v-0.367h0.041v-0.082h0.041v0.082h0.041v-0.245h-0.041v-0.082h-0.041v0.082h-0.082v-0.082h-0.041v-0.204l0.082 0.041v0.163h0.041v-0.204h-0.041v-0.163l-0.082 0.041-0.041 0.163h-0.082v0.245h-0.041v0.041h0.041zM34.093 13.877h0.041v0.163h0.041v0.041h-0.082v-0.204zM34.256 14.163h0.041v0.041h-0.041v-0.041z"></path>
<path fill="#fff" style="fill: var(--color3, #fff)" d="M34.338 14.448v-0.041h-0.041v1.062h0.041v-1.021z"></path>
<path fill="#fff" style="fill: var(--color3, #fff)" d="M34.093 14.979h0.123v0.327h-0.123v0.041h0.163v-0.408h-0.082v-0.041l0.082-0.041v-0.49h0.041v-0.041l0.082 0.041v-0.123l-0.163 0.041v0.408h-0.041v0.123h-0.082v0.041h-0.041v0.082h0.041v0.041zM34.093 15.388h0.163v-0.041h-0.204v0.041h0.041z"></path>
<path fill="#fff" style="fill: var(--color3, #fff)" d="M34.215 15.51v-0.041h-0.041v0.286h0.041l0.041-0.082h0.204v-0.082h0.041v-0.49h-0.041v-0.367h-0.041v-0.245h-0.041v-0.163h-0.082v0.041h0.041v0.286h0.041v0.49h0.041v0.082h0.041v0.327h-0.041v0.041h-0.123v-0.041l-0.082-0.041zM34.093 15.673v-0.041h-0.041v0.245h0.041v-0.204z"></path>
<path fill="#fff" style="fill: var(--color3, #fff)" d="M34.175 15.551l0.082-0.041v-0.123h0.041v-0.327h-0.041v0.286l-0.082 0.041v0.123h-0.041v1.266h0.041v0.245h0.041v0.245h0.041v-0.49l-0.082-0.041v-0.939h0.041l-0.041-0.245z"></path>
<path fill="#fff" style="fill: var(--color3, #fff)" d="M34.011 12.284h0.041v0.286h0.041v0.408h0.041v0.082h0.041v0.163h-0.082v0.041l-0.082 0.041v0.286h0.041v0.204h0.041v0.123h-0.041v0.204h-0.041v0.123h0.041v0.041h0.082v0.327h-0.041v-0.286h-0.041v0.408h-0.041v0.041h0.041v0.082l0.082 0.041v0.041h-0.082v0.041h0.041v0.367h0.082v0.041l0.082 0.041v-0.817h-0.041v-0.082h0.041v-0.163h0.123v0.327h0.041v0.449l0.082 0.041v0.204l-0.082 0.041v0.163h-0.041v0.041h-0.082v-0.082h-0.041v-0.041h-0.082v0.041h-0.041v1.225l0.082 0.041v0.204h0.041v0.49l0.082 0.041v0.204h0.041v0.98h0.041v0.082h0.041v2.981h0.041v0.286h0.041v0.204h0.041v0.612l0.082 0.041v0.204h0.041v0.408h0.041v0.122h0.041v0.408h0.041v0.041h0.49l0.041-0.082h0.163v-0.041h0.245l0.041-0.082h0.98l0.041-0.082 0.163-0.041v-0.572h-0.041v-0.041h-0.041v-0.082h-0.041v-0.286l-0.082-0.041v-0.204h-0.041v-0.245h-0.041v-0.082h-0.041v-0.327h-0.041v-0.082h-0.041v-0.082h-0.041v-0.327h-0.041v-0.082h-0.041v-0.449h-0.041v-0.204h-0.041v-0.163h-0.041v-1.225h0.041v-0.082h0.041v-0.122h0.041v-0.694h-0.041v-0.286h-0.041v-0.286h-0.041v-0.898l-0.082-0.041v-0.735h-0.041v-0.694h0.041v-0.531l0.082-0.041v-0.612h-0.082v-0.204h0.041v-0.041h0.204v0.041h0.041v0.082l0.163-0.041v0.041h0.041v0.082h0.123v0.123h0.123v0.041l0.082 0.041v0.204h0.041v0.041h0.082v0.204h0.082v0.041h0.041v0.163h0.082v0.204h0.082v0.041h0.041v0.163h0.041v0.041l0.082 0.041v0.163h0.082v0.204h0.082v0.041h0.041v0.163l0.082 0.041v0.286h0.082v0.041h0.041v0.163h0.041v0.041l0.082 0.041v0.163h0.082v0.204h0.082v0.041h0.041v0.163h0.082v0.082h0.041v0.122l0.082 0.041v0.204h0.082v0.041h0.041v0.286h0.082v0.204h0.123v0.204h0.082v0.041h0.041v0.163h0.041v0.041h0.041v0.041l0.082 0.041v0.082h0.041v0.245h0.123v0.041l0.082 0.041v0.245h0.082l0.041 0.082h0.163v0.041h0.041v0.082h0.286v0.041h0.041v0.082h0.449v-0.082h0.041v-0.041h0.286v-0.122h0.041l0.041-0.082h0.123l0.041-0.327 0.082-0.041v-0.082h0.041l0.041-0.082h0.123v-0.204h0.082v-0.041h0.041v-0.163l0.082-0.041v-0.122h0.041v-0.082h0.082v-0.286h0.041v-0.041h0.082v-0.204h0.082v-0.163h0.041v-0.041l0.082-0.041v-0.286h0.082v-0.041h0.041v-0.163l0.082-0.041v-0.163h0.041v-0.041h0.082v-0.286l0.082-0.041v-0.122h0.041v-0.082h0.082v-0.204h0.123v-0.327h0.082v-0.163h0.041v-0.041l0.082-0.041v-0.163h0.041v-0.041h0.082v-0.204h0.082v-0.163h0.041v-0.041h0.082v-0.204h0.082v-0.041h0.041v-0.041h-0.041v-0.082h0.041v-0.082h0.082v-0.163h0.041v-0.041h0.082v-0.286l0.082-0.041v-0.082h0.082v-0.041h0.041l0.041-0.163h0.082v-0.041h0.245v0.041h0.041v0.082h0.082v0.041h0.041v0.898l0.082 0.041v0.898h-0.082v4.042h-0.041v0.041h-0.082v2.368h-0.122v1.715h-0.082v1.062h-0.041v0.041h-0.082v0.327h0.245v-0.082h0.612v-0.041h0.041v-0.082h0.531v-0.082h0.041v-0.041h0.49v-0.082h0.327v-0.122h0.204v-0.082h0.041v-0.041h0.082v-1.143h0.082v-10.289h-0.123v-0.041h-0.041v-0.041h-0.041v-0.041l-0.082-0.041v-0.041h0.041v-0.082h0.041v-0.082h0.041v-0.041l0.082-0.041v-2.736h-0.204v-0.082h-0.041v-0.041h-0.123v0.041h-0.082v-0.041h-0.082v-0.082h-0.204v-0.082h-0.041v-0.041h-0.286v-0.082h-0.286v-0.041h-0.041v-0.082h-0.449v-0.041h-0.123v0.041h-0.204v0.041h-0.041v0.041l-0.082 0.041-0.041 0.163h-0.082v0.122h-0.082v0.163h-0.041v0.041l-0.082 0.041v0.163l-0.082 0.041v0.082h-0.041v0.163l-0.082 0.041v0.123h-0.041v0.082l-0.082 0.041v0.163h-0.041v0.041l-0.082 0.041v0.163h-0.082v0.204h-0.041v0.041h-0.082v0.204l-0.082 0.041-0.041 0.245h-0.082v0.163h-0.041v0.082h-0.082v0.204h-0.082v0.163h-0.041v0.041l-0.082 0.041v0.163l-0.082 0.041v0.082h-0.041v0.163l-0.082 0.041v0.123h-0.041v0.082l-0.082 0.041v0.163l-0.082 0.041v0.082h-0.041v0.123l-0.082 0.041v0.163h-0.041v0.041h-0.082v0.204l-0.082 0.041-0.041 0.245h-0.082v0.204h-0.041v0.041l-0.082 0.041v0.163h-0.082v0.163h-0.041v0.041l-0.082 0.041v0.204h-0.082l-0.041 0.245-0.082 0.041v0.163h-0.041v0.041l-0.082 0.041v0.163l-0.082 0.041v0.122h-0.041v0.082h-0.123v-0.041l-0.082-0.041v0.082h-0.041v0.041h-0.204v-0.041h-0.041v-0.082l-0.082-0.041v-0.163h-0.041v-0.041l-0.082-0.041v-0.163h-0.082v-0.122h-0.041v-0.082l-0.082-0.041v-0.163l-0.082-0.041v-0.204l-0.082-0.041v-0.163h0.041v-0.122h-0.082v-0.041h-0.041v-0.163l-0.082-0.041v-0.163h-0.041v-0.041l-0.082-0.041v-0.122h-0.082v-0.123h-0.041v-0.041l-0.082-0.041v-0.123h-0.082v-0.041h-0.041v-0.123h-0.123v-0.163h-0.041v-0.041h-0.082v-0.041h0.041v-0.163h-0.082v-0.041h-0.041v-0.163l-0.082-0.041v-0.163h-0.041v-0.041l-0.082-0.041v-0.163l-0.082-0.041v-0.123h-0.041v-0.082l-0.082-0.041v-0.163h-0.041v-0.041l-0.082-0.041v-0.163h-0.082v-0.123h-0.082v-0.082h-0.041v-0.082h-0.041v-0.041h-0.163v-0.082h-0.041v-0.041h-0.082v-0.041h-0.041v-0.041h-0.041v-0.041l-0.082-0.041-0.041-0.163h-0.082v-0.204l-0.082-0.041v-0.082h0.041v-0.123h-0.041v-0.041h-0.082v-0.122l-0.163-0.041v-0.041h-0.041v-0.041l-0.082-0.041v-0.122h0.041v-0.041h-0.041v-0.041h-0.082l-0.041-0.163h-0.082v-0.122h-0.082v-0.041h-0.041v-0.082h-0.082l-0.041-0.163-0.082-0.041v-0.286h0.082v-0.123l-0.082-0.041v-0.082h-0.082v0.041h-0.082v0.041h-0.123v0.041h-0.082l-0.041 0.082h-0.123l-0.041 0.082-0.163 0.041-0.041 0.082h-0.123v0.041h-0.041l-0.041 0.082h-0.163v0.082h-0.082v0.041h-0.123v0.082h-0.123l-0.041 0.082-0.163 0.041-0.041 0.082h-0.163l-0.041 0.082-0.163 0.041v0.082h-0.082v0.041h-0.041v0.041h-0.041v0.041l-0.082 0.041v0.123l-0.082 0.041v0.123h-0.041v0.082l-0.082 0.041v0.204h-0.041v-0.49h-0.041v0.123h-0.041v0.082l-0.082 0.041v1.511h0.041v0.041zM34.175 13.509h0.082v0.163h0.041v0.123l-0.082 0.041v-0.123h-0.041v-0.082h-0.082v-0.204h0.082v0.082zM34.215 14.081v-0.041h-0.041v-0.082h0.041v-0.041h0.082v0.041l0.082 0.041v0.082h-0.163zM34.134 16.857v-0.041h-0.041v0.408h0.041v-0.367zM34.175 18.409v-0.041h-0.041v0.408h0.041v-0.367z"></path>
<path fill="#fff" style="fill: var(--color3, #fff)" d="M34.134 17.062v-0.041h-0.041v0.245h0.041v-0.204zM34.256 18.286v-0.041h-0.041v0.817h0.041v-0.776z"></path>
<path fill="#fff" style="fill: var(--color3, #fff)" d="M34.256 18.368v-0.041h-0.041v0.735h0.041v-0.694zM34.215 17.674v-0.041h-0.041v0.163h0.041v0.082h0.041v-0.204h-0.041z"></path>
<path fill="#fff" style="fill: var(--color3, #fff)" d="M34.215 17.878h0.082v-0.041h-0.041v-0.082h-0.082v0.082h0.041v0.041z"></path>
<path fill="#fff" style="fill: var(--color3, #fff)" d="M34.256 17.837h0.041v-0.041h-0.041v-0.041h-0.082v0.122h0.082v-0.041z"></path>
<path fill="#fff" style="fill: var(--color3, #fff)" d="M34.215 17.797h0.041v0.041h-0.041v-0.041zM34.297 17.511v-0.041h-0.041v0.245l-0.082 0.041v0.163h0.123v0.041h0.041v0.776h0.041v2.205h0.041v0.776h0.041v0.449h0.041v0.163h0.041v0.408h0.041v-0.49h-0.041v-0.204h-0.041v-0.367h-0.041v-2.899h-0.041v-0.082h-0.041v-0.98h-0.041v-0.163h-0.041v-0.041z"></path>
<path fill="#000" style="fill: var(--color2, #000)" d="M36.461 19.552v-0.041h-0.041v0.653h0.041v-0.612z"></path>
<path fill="#fff" style="fill: var(--color3, #fff)" d="M34.040 11.919c-0.112 0.598 0 0.966 0.001 0.968M34.040 12.349l0.001 0.645"></path>
<path fill="#fff" style="fill: var(--color3, #fff)" d="M37.849 10.937v-0.041h-0.041v0.123l0.082 0.041 0.041 0.163h0.041v0.041h0.041v0.082h0.041v0.041l0.082 0.041v0.082h0.041l0.041 0.082h0.123v-0.123h-0.041v0.082h-0.041v-0.123h0.041v-0.041h-0.041v-0.041h-0.082l0.041-0.082h-0.041v-0.082l-0.082-0.041v-0.082h-0.041v-0.082l-0.082-0.041v-0.082h-0.041v0.082h-0.082z"></path>
<path fill="#fff" style="fill: var(--color3, #fff)" d="M37.972 11.141v-0.041h-0.041v0.082l0.082 0.041v0.082h0.041v0.041h0.082v-0.163h-0.041v0.082h-0.041v-0.082h0.041v-0.082h-0.041v-0.041h-0.041v0.082h-0.041zM40.381 15.633v0.041h0.082v0.041h-0.041v0.163h0.082v0.122h0.041l0.041 0.163h0.041v-0.082l0.082 0.041v-0.123h-0.082l-0.041-0.245h-0.082v-0.163l-0.082-0.041v-0.082h-0.041v0.123h-0.041v0.041h0.041z"></path>
<path fill="#fff" style="fill: var(--color3, #fff)" d="M40.258 15.469v-0.041h-0.041v0.123h0.041v0.082l0.082-0.041v0.041h-0.041v0.082h0.041l0.041 0.163 0.082 0.041v-0.122h0.082v0.122h-0.082v0.123h0.041v0.082l0.082 0.041v0.122h0.041v-0.163h-0.041v-0.163h0.041v-0.123h-0.041v-0.082h-0.041l-0.041-0.163h-0.041v-0.041h-0.041l-0.041-0.082h-0.123zM40.422 15.755h-0.041v-0.041h0.082v0.041h-0.041zM40.462 15.347v-0.041h-0.041v0.082h0.041v0.041h0.041v-0.082h-0.041z"></path>
<path fill="#fff" style="fill: var(--color3, #fff)" d="M40.136 15.265v0.041h0.041v0.163h0.041v0.041h0.041v-0.041h0.123v0.041h0.041v-0.082h-0.204l0.041-0.163-0.082-0.041v-0.082h-0.082v0.082h0.041v0.041zM41.361 15.469v-0.041h-0.041v0.123h0.041v-0.082zM41.483 15.183v-0.041h-0.041v0.041h0.041z"></path>
<path fill="#fff" style="fill: var(--color3, #fff)" d="M41.401 15.183v0.041h0.041v-0.123l0.082-0.041v-0.041h-0.041v-0.163h-0.041v0.163l-0.082 0.041v0.082h0.041v0.041zM46.464 12.979h0.082v-0.041h0.041v-0.123h-0.163v0.123h0.041v0.041z"></path>
<path fill="#fff" style="fill: var(--color3, #fff)" d="M46.464 12.774v-0.041l-0.082 0.041v0.204h0.082v-0.082h-0.041v-0.041l0.082-0.041v-0.041h-0.041zM46.546 12.815v-0.041h-0.041v0.082h0.041v0.041h-0.041v0.122h0.041v-0.082h0.041v-0.123h-0.041z"></path>
<path fill="#fff" style="fill: var(--color3, #fff)" d="M46.383 13.019h0.204v-0.122h-0.082v0.041h-0.082v-0.123h-0.082v0.163h0.041v0.041z"></path>
<path fill="#fff" style="fill: var(--color3, #fff)" d="M46.301 12.979h0.041v0.041h0.041l0.041 0.082 0.163 0.041v-0.327h-0.041l-0.082-0.041v-0.123h-0.041v0.041h-0.041v0.041l-0.082 0.041v0.082h-0.041v0.082h0.041v0.041zM46.424 12.938h0.082v0.041h-0.122v-0.082h0.041v0.041zM46.505 12.856v0.041h-0.041v-0.041h0.041zM46.628 12.856v-0.041h-0.041v0.245h0.041v-0.204z"></path>
<path fill="#fff" style="fill: var(--color3, #fff)" d="M33.93 12.652v0.286h0.041v0.123l0.163 0.041v0.123h-0.082v0.041l-0.082 0.041v0.041h0.041v0.408h0.041v0.327h-0.041v0.776h0.041v0.408h0.041l-0.041 0.082h0.041v0.041h0.082v0.123h-0.041v0.163h-0.041v0.041h0.041v0.041h-0.041v0.082h0.041v0.98h0.041v0.041h-0.041v0.122h0.041v0.122h0.041v0.122h0.041v0.449l-0.082 0.041v0.204h0.122v0.082h0.041v0.694h0.041v2.246h0.041v0.776h0.041v0.367h0.041v0.245h0.041v0.245h0.041v0.367h0.041v0.122h0.041v0.408h0.041v0.204h0.041v0.327h0.041v0.122h0.572v-0.041h0.082v-0.041h0.245v-0.041h0.123v-0.041h0.163v-0.041h0.857v-0.041l0.163-0.041v-0.082h0.041l-0.041-0.572h-0.041v-0.082h-0.041v-0.122h-0.041v-0.204h-0.041v-0.082h-0.041v-0.286h-0.041v-0.122h-0.041v-0.122h-0.041v-0.327l-0.082-0.041v-0.245h-0.041v-0.204h-0.041v-0.122h-0.041v-0.49h-0.041v-0.204h-0.041v-0.327h-0.041v-0.735h0.041v-0.163h0.041v-0.082h0.041v-1.102h-0.041v-0.245h-0.041v-0.286h-0.041v-0.694h-0.041v-0.245h-0.041v-1.511h0.041v-0.163h0.041v-0.694h-0.041l-0.041-0.163h0.041v-0.041h0.082v-0.041h0.082v0.041l0.082 0.041v0.082h0.041v-0.041h0.163v0.082h0.082l0.082 0.163 0.163 0.041v0.204h0.041v0.041l0.082 0.041v0.163h0.082v0.204h0.082v0.041h0.041v0.163h0.041v0.041l0.082 0.041v0.163h0.082v0.204h0.082v0.041h0.041v0.163l0.082 0.041v0.082h0.041v0.122h0.082v0.286h0.041v0.041l0.082 0.041v0.163h0.082v0.163h0.041v0.041l0.082 0.041v0.163h0.082v0.082h0.041v0.122l0.082 0.041v0.163h0.041v0.041l0.082 0.041v0.163h0.082v0.082h0.041v0.122h-0.041v0.041h0.041v0.082l0.082 0.041v0.163h0.082v0.041h0.041v0.163l0.082 0.041v0.082h0.041v0.122h0.082v0.082l0.082 0.041v0.204h0.041v0.082h0.041v0.041h0.082v0.041l0.082 0.041v0.204h0.082v0.082h0.041v0.041h0.163l0.041 0.082h0.286v0.082h0.041v0.041h0.449v-0.041h0.041l0.041-0.082h0.245v-0.082h0.041v-0.041h0.041l0.041-0.082h0.082v-0.041h0.041v-0.204h0.041l0.041-0.163h0.041l0.041-0.082h0.082v-0.041h0.041v-0.122h0.041v-0.082h0.082v-0.204h0.082v-0.041h0.041v-0.163l0.082-0.041v-0.245h0.041v-0.041l0.082-0.041v-0.163h0.041v-0.041l0.082-0.041v-0.163h0.082v-0.286h0.041v-0.041l0.082-0.041v-0.122l0.082-0.041v-0.163h0.041v-0.041l0.082-0.041v-0.286h0.041v-0.041h0.082v-0.163l0.082-0.041v-0.122h0.041v-0.082h0.082v-0.286h0.041v-0.041l0.082-0.041v-0.163h0.082v-0.163h0.041v-0.041l0.082-0.041v-0.163l0.082-0.041v-0.123h0.041v-0.082h0.082v-0.163h0.041v-0.041l0.082-0.041v-0.163l0.082-0.041v-0.123h0.041v-0.041l0.082-0.041v-0.204h0.041l0.041-0.163h0.041v-0.041h0.082v-0.082h0.041v-0.041h0.041v-0.082h0.082v-0.041h0.163v0.041h0.041l0.041 0.082h0.082v0.939h0.041v0.041l0.082 0.041v0.817h-0.041v0.041l-0.082 0.041v4.042h-0.082v2.327h-0.041v0.041h-0.082v1.715h-0.082v0.041h-0.041v0.735h0.041v0.204h-0.041v0.082l-0.082 0.041v0.327h0.245l0.041-0.082h0.612v-0.082h0.041v-0.041h0.49v-0.082h0.123v-0.041h0.123v0.041h0.245v-0.041h0.041l0.041-0.082h0.286v-0.082h0.041v-0.041h0.163v-0.041h0.041v-0.041l0.082-0.041v-1.102h0.041v-0.041l0.082-0.041v-10.575h-0.082v-0.041h-0.041v-2.817h-0.163v-0.041h-0.041l-0.041-0.082h-0.245l-0.041-0.082h-0.123v-0.041h-0.082v-0.082h-0.286v-0.041h-0.041l-0.041-0.082h-0.245l-0.041-0.082h-0.408v-0.041l-0.082-0.041v0.041h-0.204v0.041h-0.123v0.082h-0.082l-0.041 0.163h-0.041v0.041h-0.082v0.082h-0.041v0.082h-0.041v0.122l-0.082 0.041v0.122h-0.041v0.082l-0.082 0.041v0.163l-0.082 0.041-0.041 0.245-0.082 0.041v0.123h-0.041v0.082l-0.082 0.041v0.123h-0.041v0.082h-0.041v0.082h-0.041v0.123l-0.082 0.041v0.163h-0.041v0.041h-0.082v0.204l-0.082 0.041-0.041 0.245-0.082 0.041v0.122h-0.041v0.082l-0.082 0.041v0.163h-0.082v0.163h-0.041v0.041l-0.082 0.041v0.163l-0.082 0.041v0.123h-0.041v0.082l-0.082 0.041v0.163h-0.041v0.082l-0.082 0.041v0.163l-0.082 0.041v0.082h-0.041v0.123l-0.082 0.041v0.163h-0.041v0.041l-0.082 0.041v0.163l-0.082 0.041v0.163l-0.082 0.041v0.082h-0.041v0.123h-0.041v0.041h-0.041v0.082h-0.041v0.163h-0.082v0.163h-0.041v0.082h-0.082v0.163l-0.082 0.041v0.163h-0.041v0.082h-0.082v0.163h-0.041v0.082h-0.041l-0.041 0.163h-0.082v0.041h-0.082v0.041h-0.286v-0.122l-0.082-0.041v-0.204h0.123v-0.082h-0.041v-0.082l-0.082-0.041v-0.123h-0.041v-0.041h-0.041v-0.041h-0.041l-0.041-0.082-0.163 0.041v-0.327h-0.082v-0.122h-0.082v-0.286l-0.082-0.041v-0.123h-0.041v-0.082l-0.082-0.041v-0.123l-0.082-0.041-0.041-0.163h-0.041v-0.041h-0.041v-0.082h-0.041v-0.041l-0.082-0.041v-0.082l-0.082-0.041-0.041-0.163h-0.082v-0.123h-0.041v-0.041h-0.041v-0.082h-0.041v-0.163l-0.082-0.041v-0.082h-0.041v-0.082h-0.041v-0.082h-0.041v-0.123l-0.082-0.041v-0.082h-0.041v-0.122h-0.041v-0.082h-0.041l-0.041-0.163-0.082-0.041v-0.163l-0.082-0.041v-0.082h-0.041v-0.082l-0.082-0.041-0.041-0.163-0.082-0.041v-0.082h-0.163v-0.041h-0.041v-0.082h-0.041v-0.041h-0.082v-0.163h-0.123v-0.041h-0.041v-0.082l-0.082-0.041v-0.163l-0.082-0.041v-0.286h-0.082v-0.082h-0.041v-0.041h-0.123v-0.041h-0.041v-0.041l-0.082-0.041v-0.122h0.041v-0.041h-0.041v-0.041h-0.082l-0.041-0.163h-0.041v-0.041h-0.041v-0.041h-0.041v-0.041h-0.041v-0.041l-0.082-0.041v-0.082h-0.041v-0.041l-0.082-0.041v-0.082l-0.082-0.041v-0.204l0.082-0.041v-0.163h-0.041l-0.041-0.082h-0.163l-0.041 0.082h-0.163v0.041h-0.041l-0.041 0.082h-0.123l-0.041 0.082-0.163 0.041-0.041 0.082h-0.123l-0.041 0.082-0.163 0.041-0.041 0.082h-0.123v0.041h-0.041l-0.041 0.082h-0.122l-0.041 0.082h-0.082v0.041h-0.082v0.041h-0.082v0.041h-0.123l-0.041 0.082-0.163 0.041v0.082h-0.082v0.041h-0.041v0.082h-0.082v0.082h-0.041v0.082h-0.041v0.082h-0.041v0.122h-0.082v-0.041h-0.041v-0.204h-0.041v0.123h-0.041v0.082l-0.082 0.041v0.286h-0.041v0.041h0.041v0.776h-0.041v0.694h-0.041v0.123h0.041v0.041zM34.297 14.857v-0.041h-0.041v-0.286h0.041v-0.082h0.041v0.204h0.041v0.49h0.041l0.041 0.082v0.122h-0.041v0.163h-0.041v0.082h-0.041v-0.041l-0.082-0.041v-0.082h0.041v-0.408h-0.041v-0.123h0.041v-0.041zM40.258 15.551h0.082v0.041h0.041v0.163h-0.082v-0.082h-0.041v-0.123zM40.422 15.959v-0.041h-0.041v-0.082h0.082v0.123h-0.041z"></path>
<path fill="#fff" style="fill: var(--color3, #fff)" d="M41.973 13.836v-0.041h-0.041v0.041h0.041zM41.973 13.959v-0.082h-0.082v0.204h0.041v-0.041h0.041v-0.082z"></path>
<path fill="#fff" style="fill: var(--color3, #fff)" d="M41.891 13.999v-0.041h-0.041v0.245l0.082-0.041v-0.123h-0.041v-0.041zM41.728 14.448v0.041h0.041v-0.123l0.082-0.041v-0.082h-0.041v-0.041h-0.041v0.082l-0.082 0.041v0.082h0.041v0.041z"></path>
<path fill="#fff" style="fill: var(--color3, #fff)" d="M41.687 14.53v0.041h-0.041v0.123h0.041v-0.082h0.041v-0.163l-0.082 0.041v0.041h0.041zM41.483 14.898v-0.041h-0.041v0.082h0.041v0.041h0.041v-0.082h-0.041z"></path>
<path fill="#fff" style="fill: var(--color3, #fff)" d="M33.93 12.734v0.245h0.041v0.082h0.082v0.041h0.041v0.123h-0.041v0.041l-0.082 0.041v0.082h0.041v0.408h0.041v0.245h-0.041v0.857h0.041v0.449h0.041v0.041l0.082 0.041v0.041h-0.041v0.163h-0.041v0.327h0.041v0.653h-0.041v0.041h0.041v0.408h0.041v0.082h0.041v0.163h0.041v0.327h-0.041v0.082h-0.041v0.204h0.041v0.041h0.082v0.082h0.041v0.735h0.041v2.205h0.041v0.817h0.041v0.367h0.041v0.204h0.041v0.327h0.041v0.286h0.041v0.163h0.041v0.408h0.041v0.163h0.041v0.327h0.041v0.082h0.612v-0.041h0.123v-0.041h0.204v-0.041h0.123v-0.041h0.286v-0.041h0.735v-0.041h0.082v-0.041l0.082-0.041v-0.408h-0.041v-0.245l-0.082-0.041v-0.204h-0.041v-0.163h-0.041v-0.082h-0.041v-0.286h-0.041v-0.122h-0.041v-0.122h-0.041v-0.286l-0.082-0.041v-0.327h-0.041v-0.163h-0.041v-0.122h-0.041v-0.49h-0.041v-0.163h-0.041v-0.449h-0.041v-0.531h0.041v-0.245l0.082-0.041v-1.184h-0.041v-0.245h-0.041v-0.367h-0.041v-0.653h-0.041v-0.204h-0.041v-1.429h0.041v-0.122h0.041v-0.817h-0.041v-0.123h0.041v-0.041h0.163v0.041h0.041v0.082l0.163-0.041v0.041h0.041v0.041h0.041v0.041h0.041v0.041h0.041v0.041h0.041l0.041 0.082h0.082v0.041h0.041v0.204h0.082v0.123h0.041v0.082l0.082 0.041v0.163h0.041v0.041l0.082 0.041v0.123l0.082 0.041v0.123h0.041v0.082l0.082 0.041v0.163h0.082v0.082h0.041v0.123l0.082 0.041v0.163h0.041v0.041l0.082 0.041v0.245l0.082 0.041v0.082h0.041v0.122l0.082 0.041v0.163h0.082v0.082h0.041v0.122l0.082 0.041v0.082h0.041v0.122l0.082 0.041v0.122h0.041v0.041l0.082 0.041v0.163l0.082 0.041v0.286h0.041v0.041l0.082 0.041v0.122h0.082v0.082h0.041v0.122l0.082 0.041v0.163h0.041v0.041h0.041v0.041l0.082 0.041v0.082h0.041v0.204h0.041v0.041h0.041l0.041 0.082h0.082v0.082h0.041v0.163h0.041v0.041h0.041l0.041 0.082h0.163l0.041 0.082h0.245v0.041h0.041v0.041h0.041l0.041 0.082h0.367v-0.041h0.041l0.041-0.082h0.082v-0.041h0.204v-0.041h0.041v-0.082h0.082l0.041-0.082h0.082v-0.204h0.041v-0.082h0.041v-0.122h0.041v-0.041h0.082v-0.041h0.082v-0.082h0.041v-0.122l0.082-0.041v-0.163h0.041v-0.041l0.082-0.041v-0.163l0.082-0.041v-0.204h0.041v-0.082l0.082-0.041v-0.122h0.041v-0.082h0.082v-0.163l0.082-0.041v-0.245h0.041v-0.082h0.082v-0.122h0.041v-0.082l0.082-0.041v-0.163l0.082-0.041v-0.245h0.041v-0.041l0.082-0.041v-0.163l0.082-0.041 0.041-0.163 0.082-0.041v-0.245h0.041v-0.082h0.082v-0.163l0.082-0.041v-0.123h0.041v-0.082l0.082-0.041v-0.123h0.041v-0.041l0.082-0.041v-0.163l0.082-0.041v-0.122h0.041v-0.082h0.082v-0.163l0.082-0.041v-0.082h0.041v-0.123l0.082-0.041v-0.163h0.041v-0.082h0.041l0.041-0.163h0.082v-0.041h0.041v-0.082h0.041l0.041-0.082h0.082v-0.041l0.163 0.041v0.041h0.041v0.041l0.082 0.041v0.898h0.041v0.041l0.082 0.041v0.817h-0.041v0.041h-0.082v4.042h-0.041v0.041l-0.082 0.041v1.266h0.041v0.98h-0.041v0.082h-0.082v1.674h-0.041v0.041l-0.082 0.041v1.021h-0.082v0.367h0.041v0.041h0.163v-0.041h0.041v-0.041h0.082v-0.041h0.327v0.041h0.163v-0.041h0.082v-0.041h0.041l0.041-0.082h0.449l0.041-0.082h0.49l0.041-0.082h0.245v-0.041h0.041v-0.041h0.041l0.041-0.082h0.122l0.041-0.082h0.082v-1.143h0.041v-0.041l0.082-0.041v-10.452h0.041v-0.041h-0.041v-0.082h-0.041v-0.041l-0.082-0.041v-2.776h-0.123v-0.041h-0.082v-0.082h-0.286v-0.041h-0.041l-0.041-0.082h-0.163v-0.082h-0.286v-0.041h-0.041l-0.041-0.082h-0.245v-0.041h-0.041v-0.041h-0.082v-0.041h-0.082v0.041h-0.204v-0.041h-0.082v-0.041h-0.082v0.041h-0.245v0.041h-0.041v0.041h-0.041v0.041l-0.082 0.041v0.082h-0.041v0.041l-0.082 0.041v0.082h-0.041v0.082h-0.041v0.122l-0.082 0.041v0.082h-0.041v0.123l-0.082 0.041v0.123h-0.041v0.082h-0.041v0.082h-0.041v0.123l-0.082 0.041v0.123h-0.041v0.082h-0.041v0.082h-0.041v0.082h-0.041v0.082h-0.041v0.082h-0.041v0.163h-0.082v0.163h-0.041v0.041l-0.082 0.041v0.163l-0.082 0.041-0.041 0.245-0.082 0.041v0.123h-0.041v0.082h-0.041v0.082h-0.041v0.123l-0.082 0.041v0.123h-0.041v0.082l-0.082 0.041v0.123h-0.041v0.082h-0.041v0.082h-0.041v0.123l-0.082 0.041v0.163h-0.041v0.041h-0.041v0.082h-0.041v0.123h-0.041v0.082h-0.041v0.082h-0.041v0.123l-0.082 0.041v0.123h-0.041v0.041l-0.082 0.041v0.163l-0.082 0.041v0.163h-0.041v0.082l-0.082 0.041v0.123h-0.041v0.082l-0.082 0.041v0.163l-0.082 0.041v0.082h-0.041v0.122l-0.082 0.041v0.123h-0.041v0.082h-0.041v0.082h-0.041v0.123l-0.082 0.041v0.163l-0.082 0.041v0.082h-0.041v0.122h-0.123v0.041h-0.082v0.041h-0.245v-0.163l-0.082-0.041v-0.082h0.041v-0.041l0.082-0.041v-0.123l-0.082-0.041v-0.082h-0.041v-0.082l-0.082-0.041v-0.082h-0.082v-0.041h-0.163v-0.123h0.041v-0.082h-0.041l-0.041-0.163h-0.041v-0.041l-0.082-0.041v-0.245l-0.082-0.041v-0.123h-0.041v-0.082h-0.041v-0.082h-0.041v-0.123h-0.041v-0.041l-0.082-0.041v-0.082l-0.082-0.041v-0.082h-0.041v-0.041l-0.082-0.041v-0.123h-0.041v-0.041h-0.041v-0.082h-0.041v-0.041l-0.082-0.041v-0.123l-0.082-0.041v-0.082h-0.041v-0.123l-0.082-0.041v-0.123h-0.041v-0.082h-0.041v-0.082h-0.041v-0.123l-0.082-0.041v-0.082h-0.041v-0.123l-0.082-0.041v-0.122l-0.082-0.041v-0.082h-0.041v-0.122l-0.082-0.041v-0.123l-0.082-0.041-0.041-0.163h-0.041v-0.041l-0.082-0.041v-0.082h-0.123v-0.041h-0.082v-0.082h-0.041v-0.041l-0.082-0.041v-0.122h-0.123v-0.082l-0.082-0.041v-0.082h-0.041v-0.123h-0.041v-0.082h-0.041v-0.245l-0.082-0.041v-0.082h-0.123v-0.041h-0.082v-0.041h-0.041v-0.082h-0.041v-0.041h0.041v-0.082h-0.041v-0.041l-0.082-0.041v-0.123h-0.082v-0.041h-0.041v-0.041l-0.082-0.041v-0.082h-0.041v-0.041h-0.041v-0.041h-0.041v-0.041l-0.082-0.041v-0.082l-0.082-0.041v-0.163l0.082-0.041v-0.204h-0.041l-0.041-0.082h-0.163v0.041h-0.082v0.041h-0.123l-0.041 0.082-0.163 0.041-0.041 0.082h-0.123l-0.041 0.082-0.163 0.041v0.041h-0.041v0.041h-0.082v0.041h-0.123l-0.041 0.082-0.163 0.041-0.041 0.082h-0.123l-0.041 0.082-0.163 0.041-0.041 0.082h-0.163v0.041h-0.041l-0.041 0.082h-0.082v0.041h-0.041v0.041h-0.041v0.041h-0.041v0.041l-0.082 0.041v0.082l-0.082 0.041v0.123h-0.041v0.082h-0.082v-0.041h-0.041v-0.123h-0.041l-0.041 0.163-0.082 0.041v0.245h-0.041v0.204h0.041v0.612h-0.041v0.531h-0.041v0.408h0.041v0.041zM34.338 14.653v0.041h0.041v0.49l0.082 0.041v0.082h-0.041v0.163h-0.041v0.082h-0.041v-0.041h-0.041v-0.367h0.041v-0.041h-0.041v-0.49h0.041v0.041zM40.34 15.673h-0.041v-0.041h0.041v0.041z"></path>
<path fill="#fff" style="fill: var(--color3, #fff)" d="M40.871 16.163v-0.041h-0.041v0.041h0.041zM43.892 9.753v-0.041h-0.041v0.082h0.041v-0.041zM43.688 10.243v-0.041h0.041v-0.163h0.041v-0.041h0.041v-0.082h0.041v-0.123h-0.041v0.082h-0.041v0.082l-0.082 0.041v0.163h-0.082v0.123l0.082-0.041z"></path>
<path fill="#fff" style="fill: var(--color3, #fff)" d="M43.688 10.202h0.041v-0.082h0.041l-0.041-0.163h-0.041v0.123h-0.041v0.082h0.041v0.041zM43.484 10.651v-0.041l-0.082 0.041v0.163h0.041l0.041-0.163zM43.239 11.1v0.041h0.041v-0.082h-0.082v0.041h0.041zM43.035 11.305v-0.041h-0.041v0.082h0.041v-0.041zM42.831 11.795v-0.041h-0.041v0.123h0.041v-0.082zM42.626 12.448v-0.041h-0.041v0.041h0.041zM42.341 12.979v-0.041h-0.041v0.163h0.041v-0.123zM41.932 13.877l0.082 0.041v-0.041h0.041v-0.041h-0.163v0.082h0.041v-0.041zM41.238 15.633v-0.041h-0.041v0.041h0.041zM40.952 16.122h0.041v-0.123h-0.041v0.082h-0.041v0.082h0.041v-0.041z"></path>
<path fill="#fff" style="fill: var(--color3, #fff)" d="M33.93 12.897v0.122h0.041v0.041h0.041v0.041l0.082 0.041v0.082h-0.082v0.041h-0.041v0.286h0.041v0.286h0.041v0.082h-0.041v0.204h-0.041v0.123h0.041v0.898h0.041v0.245l0.082 0.041v0.123h-0.041v1.225h0.041v0.327h0.041v0.122h0.041v0.163h0.041v0.204h-0.041v0.082h-0.041v0.245h0.041v0.041l0.082 0.041v0.694h0.041v2.164h0.041v0.163h0.041v0.857h0.041v0.327h0.041v0.245h0.041v0.408h0.041v0.163h0.041v0.204h0.041v0.408h0.041v0.122h0.041v0.327h0.041v0.041h0.653v-0.041h0.163v-0.041h0.163v-0.041h0.163v-0.041h0.857v-0.041h0.122v-0.041h0.041v-0.041l0.082-0.041v-0.122h0.041v-0.082h-0.041v-0.327h-0.041v-0.163l-0.082-0.041v-0.245h-0.041v-0.122h-0.041v-0.082h-0.041v-0.286h-0.041v-0.082h-0.041l-0.041-0.408h-0.041v-0.082h-0.041v-0.367h-0.041v-0.122h-0.041v-0.245h-0.041v-0.449h-0.041v-0.082h-0.041v-1.102h0.041v-0.122h0.041v-1.347h-0.041v-0.122h-0.041v-0.653h-0.041v-0.449h-0.041v-0.163h-0.041v-1.307h0.041v-0.082h0.041v-0.49h0.041v-0.327h-0.041v-0.122h-0.041v-0.041h0.041l0.041-0.082h0.082v0.041h0.041l0.041 0.082h0.163v0.041h0.082v0.082h0.041v0.041h0.041l0.041 0.082h0.123v0.082h0.041v0.163l0.082 0.041v0.123h0.041v0.082h0.041l0.041 0.163 0.082 0.041v0.082h0.041v0.122l0.082 0.041v0.123h0.041v0.082h0.041l0.041 0.163 0.082 0.041v0.082h0.041v0.123l0.082 0.041v0.122h0.041v0.041h0.041v0.082h0.041v0.245l0.082 0.041v0.122l0.082 0.041v0.082h0.041v0.122l0.082 0.041v0.082h0.041v0.082h0.041v0.082h0.041v0.122h0.041v0.041h0.041v0.082h0.041v0.122h0.041v0.041l0.082 0.041v0.122h0.041v0.082h0.041v0.245l0.082 0.041 0.041 0.163 0.082 0.041v0.122h0.041v0.082l0.082 0.041v0.122h0.041v0.041l0.082 0.041v0.082h0.041v0.082h0.041v0.204h0.041l0.041 0.082h0.082v0.041h0.041v0.082h0.041v0.163h0.041l0.041 0.082h0.163v0.041h0.041v0.041h0.082v0.041h0.245v0.082h0.041v0.041h0.449v-0.041h0.041l0.041-0.082h0.245v-0.041h0.041v-0.082h0.041l0.041-0.082h0.082v-0.041h0.041v-0.163h0.041v-0.082h0.041v-0.122h0.041l0.041-0.082h0.082v-0.041l0.082-0.041v-0.163l0.082-0.041v-0.122h0.041v-0.082l0.082-0.041v-0.122h0.041v-0.041l0.082-0.041v-0.245l0.082-0.041v-0.082h0.041v-0.122l0.082-0.041v-0.122l0.082-0.041v-0.122h0.041v-0.041h-0.041v-0.082h0.041v-0.082l0.082-0.041v-0.082h0.041v-0.082h0.041v-0.082h0.041v-0.122l0.082-0.041v-0.245h0.041v-0.082l0.082-0.041v-0.122h0.041v-0.041l0.082-0.041v-0.122h0.041v-0.041h0.041v-0.082h0.041v-0.123h-0.041v-0.041h0.041v-0.082l0.082-0.041v-0.123h0.041v-0.082h0.041l0.041-0.163 0.082-0.041v-0.082h0.041v-0.123l0.082-0.041v-0.123h0.041v-0.082h0.041l0.041-0.163 0.082-0.041v-0.123h0.041v-0.082l0.082-0.041v-0.123l0.082-0.041 0.041-0.245h0.041l0.041-0.163h0.041v-0.041h0.041v-0.041h0.041v-0.041h0.041v-0.041h0.041l0.041-0.082h0.163v0.041h0.041v0.041h0.041v0.041l0.082 0.041v0.204h-0.041v0.612h0.041v0.082h0.041v0.041l0.082 0.041v0.694h-0.041v0.082h-0.041v0.041h-0.041v0.082h-0.041v1.96h0.041v1.919h-0.041v0.082l-0.082 0.041v2.327l-0.082 0.041v1.674h-0.041v0.041h-0.082v0.204h-0.041v0.163h0.041v0.653h-0.041v0.041l-0.082 0.041v0.286h0.041v0.082h0.245l0.041-0.082h0.572v-0.041h0.041l0.041-0.082h0.082v-0.041h0.286v0.041h0.082v-0.041h0.041v-0.041h0.082v-0.041h0.286v0.041h0.041v-0.041h0.123l0.041-0.082h0.286v-0.082h0.041v-0.041h0.123v-0.041h0.082v-0.041l0.082-0.041v-1.102h0.041v-0.041l0.082-0.041v-10.33h0.041v-0.245h-0.041v-0.041h-0.041v-0.041l-0.082-0.041v-2.776l-0.163-0.041v-0.041h-0.041l-0.041-0.082h-0.082v0.041h-0.123v-0.041h-0.041l-0.041-0.082h-0.163l-0.041-0.082h-0.245v-0.041h-0.082v-0.082h-0.245v-0.041h-0.041l-0.041-0.082h-0.449v-0.082h-0.041v0.041h-0.082v0.041h-0.245v0.041h-0.041v0.082h-0.041v0.041h-0.041v0.041l-0.082 0.041v0.082h-0.041v0.041h-0.041v0.082h-0.041v0.123l-0.082 0.041v0.082h-0.041v0.082h-0.041v0.082h-0.041v0.123h-0.041v0.082h-0.041v0.082h-0.041v0.123h-0.041v0.082h-0.041v0.082h-0.041v0.082h-0.041v0.082h-0.041v0.082h-0.041v0.082h-0.041v0.082h-0.041v0.163l-0.082 0.041v0.123h-0.041v0.082l-0.082 0.041v0.123h-0.041v0.082h-0.041v0.082h-0.041v0.123h-0.041v0.082h-0.041v0.123h-0.041v0.082l-0.082 0.041v0.123h-0.041v0.082h-0.041l-0.041 0.163h-0.041v0.041h-0.041v0.082h-0.041v0.123h-0.041v0.082h-0.041v0.123h-0.041v0.082h-0.041v0.123h-0.041v0.082l-0.082 0.041v0.123h-0.041v0.082h-0.041v0.082h-0.041v0.082h-0.041v0.082h-0.041v0.123h-0.041v0.082h-0.041v0.041h-0.041v0.082h-0.041v0.123h-0.041v0.082h-0.041v0.122l-0.082 0.041v0.123h-0.041v0.082h-0.041v0.082h-0.041v0.082h-0.041v0.123l-0.082 0.041v0.163h-0.041v0.041l-0.082 0.041v0.123h-0.041v0.082h-0.041v0.163l-0.082 0.041v0.123h-0.041v0.082h-0.041l-0.041 0.163h-0.041v0.041h-0.122l-0.041 0.082h-0.204v-0.122h-0.041v-0.082h-0.041v-0.082h0.082v-0.245l-0.082-0.041-0.041-0.163h-0.041v-0.041h-0.041l-0.041-0.082h-0.123v-0.041h-0.041v-0.204h-0.041l-0.041-0.163h-0.082v-0.082h-0.041v-0.245l-0.082-0.041v-0.123h-0.041v-0.082h-0.041l-0.041-0.163-0.082-0.041-0.041-0.163h-0.041v-0.041h-0.041v-0.082h-0.041v-0.041l-0.082-0.041v-0.082l-0.082-0.041-0.041-0.163h-0.082v-0.163l-0.082-0.041v-0.082h-0.041v-0.123l-0.082-0.041v-0.123h-0.041v-0.082h-0.041l-0.041-0.163-0.082-0.041v-0.123h-0.041v-0.082h-0.041v-0.082h-0.041v-0.123h-0.041v-0.041l-0.082-0.041v-0.122h-0.041v-0.082h-0.041l-0.041-0.163-0.082-0.041-0.041-0.163h-0.041l-0.041-0.082-0.163-0.041v-0.041h-0.041v-0.082h-0.041v-0.041l-0.082-0.041v-0.082h-0.082v-0.041h-0.041v-0.082l-0.082-0.041v-0.163h-0.041v-0.041h-0.041v-0.082h-0.041v-0.204l-0.082-0.041v-0.082h-0.123v-0.041h-0.041v-0.041l-0.082-0.041v-0.204h-0.082l-0.041-0.163h-0.041v-0.041h-0.041v-0.041h-0.041v-0.041h-0.041v-0.041h-0.041v-0.041l-0.082-0.041v-0.082h-0.082v-0.082l-0.082-0.041v-0.123h-0.041v-0.041h0.041v-0.082h0.041v-0.245h-0.041v-0.041h-0.245v0.041h-0.082v0.041h-0.123v0.041h-0.041l-0.041 0.082h-0.123l-0.041 0.082h-0.082v0.041h-0.082v0.041l-0.163 0.041-0.041 0.082-0.163 0.041-0.041 0.082h-0.123l-0.041 0.082-0.163 0.041-0.041 0.082h-0.082v0.041h-0.082v0.041h-0.082v0.041h-0.123l-0.041 0.082h-0.082v0.041h-0.041v0.041h-0.041v0.041h-0.041v0.041h-0.041v0.041h-0.041v0.041l-0.082 0.041v0.082h-0.041l-0.041 0.163h-0.082v-0.041h-0.041v-0.082l-0.082 0.041v0.082l-0.082 0.041v0.163h-0.041v1.388h-0.041v0.653h0.041v0.041zM34.338 15.51v-0.041h-0.041v-0.082h0.041v-0.204h0.082v0.245h-0.041v0.082h-0.041z"></path>
<path fill="#fff" style="fill: var(--color3, #fff)" d="M41.279 15.551v-0.041h-0.041v0.041h0.041z"></path>
<path fill="#fff" style="fill: var(--color3, #fff)" d="M33.725 11.917v0.204h0.041v0.123h0.041v0.408h0.041v0.367h0.041v1.266h0.041v0.531h0.041v0.612h0.041v0.367h-0.041v0.776h0.041v0.612h0.041v0.163h0.041v0.612h0.041v0.245h0.041v0.163h-0.041v0.408h0.041v0.327h0.041v2.246h0.041v0.163h0.041v0.653h0.041v0.367h0.041v0.122h0.041v0.49h0.041v0.122h0.041v0.204h0.041v0.531h0.041v0.122h0.041v0.082h0.041l0.041 0.082h0.163v0.041h0.204v-0.041h0.408v-0.041h0.082v-0.041l0.408-0.041v-0.041h0.123v-0.041h0.776v-0.041h0.123v-0.041h0.082v-0.041l0.082-0.041v-0.082l0.082-0.041v-0.286h-0.041v-0.163h-0.041v-0.245h-0.041v-0.122h-0.041v-0.122h-0.041v-0.245h-0.041v-0.163h-0.041v-0.204h-0.041v-0.163h-0.041v-0.286h-0.041v-0.163h-0.041v-0.163h-0.041v-0.449h-0.041v-0.082h-0.041v-0.939h-0.041v-0.082h-0.041v-0.572h0.041v-1.307h-0.041v-0.531h-0.041v-0.286h-0.041v-0.98h-0.041v-0.694h0.041v-0.898h0.041v-0.286h0.041l0.041-0.082h0.082v0.041h0.041v0.041h0.041v0.041h0.041v0.041h0.041v0.041h0.041v0.041l0.082 0.041v0.123l0.082 0.041v0.123h0.041v0.082h0.041v0.082h0.041l0.041 0.163 0.082 0.041v0.122l0.082 0.041v0.123h0.041v0.082h0.041v0.082h0.041v0.123l0.082 0.041v0.082h0.041v0.082h0.041v0.082h0.041v0.082h0.041v0.082h0.041v0.082h0.041v0.204l0.082 0.041v0.082h0.041v0.122l0.082 0.041v0.122h0.041v0.082l0.082 0.041v0.122l0.082 0.041v0.122h0.041v0.082l0.082 0.041v0.122l0.082 0.041v0.082h0.041v0.122l0.082 0.041v0.245h0.041v0.082l0.082 0.041v0.122l0.082 0.041v0.082h0.041v0.122l0.082 0.041 0.041 0.163h0.041v0.041h0.041v0.082h0.041v0.122h0.041v0.122h0.041v0.082l0.163 0.082v0.082h0.041v0.122h0.041v0.041h0.041v0.041h0.041l0.041 0.082h0.123v0.041h0.041v0.041h0.082v0.041h0.245v0.041h0.041v0.041h0.082v0.041h0.367v-0.041h0.082l0.041-0.082h0.204v-0.041h0.082v-0.041h0.041v-0.041h0.041l0.041-0.082h0.082v-0.041h0.041v-0.082l0.082-0.041v-0.204h0.041v-0.082h0.041v-0.041h0.082v-0.041h0.041v-0.082h0.041v-0.082h0.041v-0.082h0.041v-0.082h0.041v-0.122l0.082-0.041v-0.082h0.041v-0.082h0.041v-0.082h0.041v-0.082h0.041v-0.163h0.041v-0.082l0.082-0.041v-0.122h0.041v-0.082h0.041v-0.082h0.041v-0.122h0.041l0.041-0.245 0.082-0.041v-0.082h0.041v-0.122h0.041v-0.082h0.041v-0.082h0.041v-0.122h0.041v-0.204h0.041v-0.041l0.082-0.041v-0.122h0.041v-0.082h0.041l0.041-0.163h0.041v-0.041h0.041v-0.082h0.041v-0.204h0.041v-0.082h0.041v-0.082h0.041v-0.123h0.041v-0.082l0.082-0.041v-0.082l0.082-0.041v-0.123h0.041v-0.082h0.041v-0.082h0.041v-0.082h0.041v-0.123l0.082-0.041v-0.082h0.041v-0.082h0.041v-0.122h0.041l0.041-0.163 0.082-0.041v-0.082h0.041v-0.082h0.041v-0.163h0.041v-0.041h0.041v-0.041h0.041v-0.041h0.041v-0.041h0.041l0.041-0.082h0.123v0.082h0.041v0.082h0.041v0.817l0.082 0.041v0.776h-0.041v0.082h-0.041v3.266h-0.041v0.776h-0.041v0.082h-0.041v2.286l-0.082 0.041v1.307h-0.041v0.367l-0.082 0.041v0.98h-0.041v0.082h-0.041v0.082h-0.041v0.286h0.041v0.082h0.082v0.041h0.245l0.041-0.082h0.49v-0.041h0.163l0.041-0.082h0.408v-0.041h0.082l0.041-0.082h0.449v-0.041h0.082v-0.041h0.204v-0.041h0.082l0.041-0.082h0.122v-0.041h0.041l0.041-0.082h0.082v-0.082h0.041v-1.062h0.041v-0.041h0.041v-0.082h0.041v-10.248h0.041v-0.367h-0.041v-0.041l-0.082-0.041v-0.082h-0.041v-2.736l-0.163-0.041v-0.041h-0.041v-0.041h-0.082l-0.041-0.082h-0.245v-0.041h-0.082v-0.041h-0.082v-0.041h-0.123v-0.041h-0.163l-0.041-0.082h-0.082v-0.041h-0.082v-0.041h-0.204v-0.041h-0.245v-0.041h-0.163v-0.041h-0.367l-0.041 0.082h-0.082v0.041h-0.041v0.041h-0.041v0.041l-0.082 0.041v0.082h-0.082l-0.041 0.082h-0.082v0.041l-0.082 0.041v0.082h-0.082v0.123h-0.041v0.082h-0.041v0.082h-0.041v0.204h-0.082v0.082h-0.041v0.123l-0.082 0.041v0.163l-0.082 0.041v0.082h-0.041v0.123h-0.041v0.041h-0.041v0.082h-0.041v0.123h-0.041v0.041l-0.082 0.041v0.163l-0.082 0.041v0.204h-0.082v0.041h-0.041v0.163l-0.082 0.041v0.163h-0.041v0.041l-0.082 0.041v0.163h-0.041v0.082h-0.041v0.082h-0.041v0.123l-0.082 0.041v0.163h-0.041v0.041l-0.082 0.041v0.163h-0.082v0.204h-0.082v0.041h-0.041v0.204l-0.082 0.041v0.082h-0.041v0.123l-0.082 0.041v0.163h-0.041v0.041l-0.082 0.041v0.204h-0.082v0.082h-0.041v0.123l-0.082 0.041v0.204l-0.082 0.041-0.041 0.163-0.082 0.041v0.163h-0.041v0.082l-0.082 0.041v0.204h-0.082v0.041h-0.041v0.163l-0.082 0.041v0.163l-0.082 0.041v0.082h-0.041v0.123h-0.041v-0.041h-0.041v-0.041l-0.082-0.041v-0.204h-0.041v-0.041l-0.082-0.041v-0.123l-0.082-0.041v-0.123h0.041v-0.041h-0.041v-0.041h-0.082v-0.041h-0.041v-0.082l-0.082-0.041v-0.163h-0.041v-0.082h-0.041v-0.082h-0.041v-0.123l-0.082-0.041v-0.082h-0.041v-0.123l-0.082-0.041v-0.123l-0.082-0.041v-0.082h-0.041v-0.082l-0.082-0.041-0.041-0.163-0.082-0.041v-0.082l-0.082-0.041-0.041-0.163-0.082-0.041v-0.163l-0.082-0.041-0.041-0.163-0.082-0.041-0.041-0.163-0.082-0.041v-0.123h-0.041v-0.082l-0.082-0.041v-0.163l-0.082-0.041v-0.082h-0.041v-0.082h-0.041v-0.082h-0.041v-0.123l-0.082-0.041v-0.082h-0.041v-0.082l-0.082-0.041-0.041-0.163h-0.041v-0.041h-0.041v-0.041l-0.082-0.041v-0.204h-0.041v-0.041l-0.082-0.041v-0.122l-0.082-0.041-0.041-0.163h-0.082v-0.123h-0.041v-0.041l-0.082-0.041v-0.082h-0.041v-0.041h-0.041v-0.041h-0.041v-0.041l-0.082-0.041v-0.163h-0.041v-0.041l-0.082-0.041v-0.082h-0.082v-0.123h-0.041v-0.041l-0.082-0.041v-0.082h-0.041v-0.041h-0.082v-0.082l-0.082-0.041v-0.082h-0.041v-0.041l-0.082-0.041v-0.123h-0.041v-0.041h-0.041v-0.082h-0.041v-0.245h-0.041v-0.041l-0.082-0.041v-0.082h-0.367l-0.041 0.082h-0.123v0.041h-0.082v0.041h-0.041v0.041h-0.082l-0.041 0.082h-0.122v0.041h-0.082l-0.041 0.082h-0.123l-0.041 0.082-0.163 0.041-0.041 0.082h-0.123v0.041h-0.082v0.041h-0.041v0.041h-0.082l-0.041 0.082h-0.082v0.041h-0.123l-0.041 0.082h-0.123v0.041h-0.041l-0.041 0.082h-0.123v0.041h-0.041v0.041h-0.041v0.041h-0.041l-0.041 0.082h-0.286v0.041h-0.041v0.041h-0.041v0.041h-0.041v0.041h-0.041v0.041l-0.082 0.041v0.123l-0.082 0.041v0.204h-0.041v1.102h0.041v0.041z"></path>
</symbol>
<symbol id="icon-logout-orange" viewBox="0 0 32 32">
<path fill="#ff6b08" style="fill: var(--color1, #ff6b08)" d="M3.235 21.654v7.11h25.53v-25.53h-25.53v7.112h-2.915v-6.792c0-1.787 1.448-3.235 3.235-3.235h24.89c1.787 0 3.235 1.448 3.235 3.235v24.89c0 1.787-1.448 3.235-3.235 3.235v0h-24.89c-1.787 0-3.235-1.448-3.235-3.235v0-6.79h2.915zM17.963 14.542l-4.915-4.915 2.064-2.064 8.434 8.437-8.437 8.437-2.062-2.064 4.915-4.915h-17.642v-2.914h17.643z"></path>
</symbol>
<symbol id="icon-replay-24px-orange" viewBox="0 0 32 32">
<path fill="#ff6b08" style="fill: var(--color1, #ff6b08)" d="M6.667 16h-5.333l6.667 6.667 6.667-6.667h-5.333c0-4.413 3.587-8 8-8s8 3.587 8 8c0 4.413-3.587 8-8 8v2.667c5.893 0 10.667-4.773 10.667-10.667s-4.773-10.667-10.667-10.667c-5.893 0-10.667 4.773-10.667 10.667z"></path>
</symbol>
<symbol id="icon-search-24px-orange" viewBox="0 0 32 32">
<path fill="#ff6b08" style="fill: var(--color1, #ff6b08)" d="M20.667 18.667h-1.053l-0.373-0.36c1.307-1.52 2.093-3.493 2.093-5.64 0-4.787-3.88-8.667-8.667-8.667s-8.667 3.88-8.667 8.667 3.88 8.667 8.667 8.667c2.147 0 4.12-0.787 5.64-2.093l0.36 0.373v1.053l6.667 6.653 1.987-1.987-6.653-6.667zM12.667 18.667c-3.32 0-6-2.68-6-6s2.68-6 6-6 6 2.68 6 6-2.68 6-6 6z"></path>
</symbol>
<symbol id="icon-tune-24px-orange" viewBox="0 0 32 32">
<path fill="#ff6b08" style="fill: var(--color1, #ff6b08)" d="M4 22.667v2.667h8v-2.667h-8zM4 6.667v2.667h13.333v-2.667h-13.333zM17.333 28v-2.667h10.667v-2.667h-10.667v-2.667h-2.667v8h2.667zM9.333 12v2.667h-5.333v2.667h5.333v2.667h2.667v-8h-2.667zM28 17.333v-2.667h-13.333v2.667h13.333zM20 12h2.667v-2.667h5.333v-2.667h-5.333v-2.667h-2.667v8z"></path>
</symbol>
<symbol id="icon-user-profile-orange" viewBox="0 0 32 32">
<path fill="#ff6b08" style="fill: var(--color1, #ff6b08)" d="M29.474 32h-3.242c0-5.47-4.589-9.918-10.232-9.918s-10.23 4.45-10.23 9.92h-3.242c0-7.261 6.045-13.163 13.472-13.163 7.429 0 13.474 5.902 13.474 13.162zM16 17.786c-4.907-0.008-8.883-3.985-8.89-8.892v-0.001c0.005-4.909 3.982-8.887 8.891-8.893h0c4.91 0.005 8.889 3.983 8.894 8.892v0.001c-0.005 4.91-3.985 8.889-8.896 8.893h-0zM16 3.242c-3.119 0.005-5.645 2.532-5.648 5.651v0c0.004 3.118 2.53 5.645 5.648 5.65h0c3.12-0.002 5.649-2.53 5.653-5.649v-0c-0.005-3.119-2.532-5.646-5.651-5.65h-0z"></path>
</symbol>
</defs>
</svg>
